<svg width="18" height="16" viewBox="0 0 18 16" fill="none" xmlns="http://www.w3.org/2000/svg">
<path d="M7.24521 11.7194C7.49505 11.389 7.42976 10.9186 7.09938 10.6688C6.769 10.419 6.29864 10.4842 6.04879 10.8146L7.24521 11.7194ZM3.22579 14.5476C2.97595 14.878 3.04124 15.3484 3.37162 15.5982C3.702 15.8481 4.17236 15.7828 4.42221 15.4524L3.22579 14.5476ZM3.074 15C3.074 15.4142 3.40979 15.75 3.824 15.75C4.23821 15.75 4.574 15.4142 4.574 15H3.074ZM4.574 1C4.574 0.585786 4.23821 0.25 3.824 0.25C3.40979 0.25 3.074 0.585786 3.074 1H4.574ZM3.22587 15.4525C3.47577 15.7828 3.94614 15.848 4.27648 15.5981C4.60682 15.3482 4.67203 14.8779 4.42213 14.5475L3.22587 15.4525ZM1.59813 10.8145C1.34823 10.4842 0.877855 10.419 0.547517 10.6689C0.217179 10.9188 0.151971 11.3891 0.40187 11.7195L1.59813 10.8145ZM7.588 0.25C7.17379 0.25 6.838 0.585786 6.838 1C6.838 1.41421 7.17379 1.75 7.588 1.75V0.25ZM17 1.75C17.4142 1.75 17.75 1.41421 17.75 1C17.75 0.585786 17.4142 0.25 17 0.25V1.75ZM7.588 3.05C7.17379 3.05 6.838 3.38579 6.838 3.8C6.838 4.21421 7.17379 4.55 7.588 4.55V3.05ZM15.117 4.55C15.5312 4.55 15.867 4.21421 15.867 3.8C15.867 3.38579 15.5312 3.05 15.117 3.05V4.55ZM7.588 5.85C7.17379 5.85 6.838 6.18579 6.838 6.6C6.838 7.01421 7.17379 7.35 7.588 7.35V5.85ZM13.235 7.35C13.6492 7.35 13.985 7.01421 13.985 6.6C13.985 6.18579 13.6492 5.85 13.235 5.85V7.35ZM6.04879 10.8146L3.22579 14.5476L4.42221 15.4524L7.24521 11.7194L6.04879 10.8146ZM4.574 15V1H3.074V15H4.574ZM4.42213 14.5475L1.59813 10.8145L0.40187 11.7195L3.22587 15.4525L4.42213 14.5475ZM7.588 1.75H17V0.25H7.588V1.75ZM7.588 4.55H15.117V3.05H7.588V4.55ZM7.588 7.35H13.235V5.85H7.588V7.35Z" fill="#E8505B"/>
</svg>
