<svg width="227" height="120" viewBox="0 0 227 120" fill="none" xmlns="http://www.w3.org/2000/svg">
<g clip-path="url(#clip0_31_31843)">
<path d="M97.7362 13.9749C92.3409 13.2463 86.8681 14.5606 82.392 17.6598C80.8481 18.7449 79.4806 20.0614 78.3377 21.563C78.1614 21.7897 78.0859 22.2346 77.6998 22.1003C77.3136 21.966 77.4228 21.5798 77.4144 21.2609C77.3933 18.0185 77.9916 14.802 79.1771 11.784C80.0832 9.34418 81.5157 7.13388 83.3727 5.31027C85.2296 3.48666 87.4655 2.09451 89.9214 1.23278C93.5477 -0.0768427 97.4881 -0.244734 101.213 0.751682C104.937 1.7481 108.267 3.86104 110.755 6.80639C114.314 11.0034 115.792 16.0398 115.968 21.37C116.094 24.5933 115.968 27.8334 115.968 31.065C115.968 32.0555 115.615 32.2486 114.734 32.0136C110.428 30.8468 106.08 29.7136 101.757 28.572C95.0418 26.7589 88.8806 27.6235 83.3321 31.9296C81.8005 33.1588 80.4646 34.6136 79.3702 36.2441C79.2023 36.4876 79.068 36.8905 78.707 36.7814C78.3461 36.6722 78.4468 36.2525 78.4636 35.942C78.9169 27.3885 82.2997 20.539 89.955 16.2328C92.3609 14.9409 95.0125 14.1714 97.7362 13.9749Z" fill="#EB5F52"/>
<path d="M129.248 58.2533C134.538 59.0089 139.922 57.7768 144.357 54.795C145.783 53.9114 147.035 52.7733 148.05 51.4374C148.224 51.1786 148.414 50.9318 148.621 50.6987C148.814 50.4889 148.974 50.1027 149.343 50.2622C149.712 50.4217 149.578 50.7407 149.57 51.0093C149.494 52.2432 149.486 53.5275 149.309 54.7027C148.663 59.1095 147.177 63.1638 144.08 66.4543C141.781 68.9351 138.804 70.6863 135.518 71.4907C132.637 72.2948 129.604 72.3871 126.68 71.7599C123.756 71.1326 121.028 69.8045 118.73 67.8896C114.533 64.532 112.3 59.9321 111.419 54.6691C110.647 50.0943 111.1 45.4357 110.991 40.8777C110.991 40.0383 111.452 40.0383 112.09 40.1894L125.345 43.7653C132.06 45.5616 138.296 44.655 143.811 40.265C145.302 39.0606 146.611 37.647 147.698 36.068C147.849 35.8581 147.966 35.4972 148.294 35.5895C148.621 35.6819 148.52 36.0596 148.512 36.3198C148.294 46.2835 142.2 55.6931 132.06 57.8588C131.136 58.0183 130.196 58.1106 129.248 58.2533Z" fill="#3A3557"/>
<path d="M135.686 20.3711C136.29 14.0168 134.846 8.25855 130.649 3.32288C129.902 2.48348 128.97 1.82875 128.131 1.03132C127.904 0.813078 127.392 0.720744 127.585 0.292651C127.778 -0.135443 128.207 0.0324366 128.534 0.0324366C131.182 0.0892856 133.809 0.513021 136.34 1.29154C143.442 3.59988 147.966 8.42643 149.225 15.7208C150.535 23.2754 147.848 29.6549 141.67 34.3303C137.903 37.0415 133.393 38.5273 128.752 38.5861C125.395 38.7455 122.037 38.6364 118.679 38.6364C117.471 38.6364 117.387 38.5105 117.706 37.285C118.931 32.6683 120.224 28.0516 121.382 23.4433C123.439 15.3683 120.778 7.075 113.66 2.08897C113.366 1.88751 112.82 1.76999 112.98 1.31672C113.139 0.863442 113.584 1.08169 113.903 1.09847C121.852 1.52657 128.374 4.61556 132.815 11.4399C134.458 14.1509 135.442 17.2102 135.686 20.3711Z" fill="#EB5F52"/>
<path d="M91.3235 52.0752C90.6939 58.7904 92.314 64.7921 97.0986 69.7026C97.6526 70.265 98.2905 70.7351 98.8865 71.2555C99.1131 71.4486 99.5496 71.5661 99.4321 71.9186C99.3146 72.2712 98.8445 72.1872 98.5172 72.1872C96.4216 72.176 94.3345 71.9225 92.2972 71.4318C88.888 70.6908 85.7383 69.0536 83.1729 66.6892C80.8587 64.5492 79.1725 61.8181 78.296 58.7904C76.9753 54.5494 77.2164 49.9758 78.9759 45.8972C80.8422 41.4858 84.3089 37.9442 88.6794 35.9839C92.2241 34.3592 96.0872 33.5475 99.9861 33.6084H108.33C109.513 33.6084 109.639 33.7427 109.354 34.8423C108.212 39.224 107.146 43.5889 105.87 47.8782C104.591 51.9247 104.634 56.2734 105.992 60.294C107.35 64.3146 109.954 67.7982 113.425 70.2398C113.677 70.4161 114.18 70.5 114.004 70.9449C113.878 71.2639 113.458 71.1716 113.165 71.1548C104.351 70.6092 97.3756 67.0417 93.2289 58.9163C92.191 56.7678 91.5457 54.4509 91.3235 52.0752Z" fill="#CBA36E"/>
</g>
<path d="M25.5521 101.209V106.833H5.47363V102.535L16.6293 86.6872H5.74224V81.0632H25.2667V85.3526L14.1111 101.209H25.5521ZM44.5309 101.158V106.833H29.2286V81.0632H44.5309V86.6536H36.1957V90.7079H43.9097V96.2899H36.1957V101.158H44.5309ZM73.5741 81.0632V106.833H64.4415L55.0318 88.6766H54.8723C55.0961 91.5361 55.2081 93.7158 55.2081 95.2155V106.833H49.0385V81.0632H58.1376L67.5137 98.976H67.6144C67.4521 96.3795 67.371 94.2922 67.371 92.7141V81.0632H73.5741ZM86.1399 106.833H79.1394V81.0632H86.1399V106.833ZM98.5631 97.1545V106.833H91.7052V81.0632H106.94V86.6536H98.5631V91.5725H106.286V97.1545H98.5631ZM115.964 81.0632L120.362 90.6156L124.811 81.0632H132.349L123.871 96.7684V106.833H116.862V96.9783L108.384 81.0632H115.964ZM155.877 86.7628V106.833H148.919V86.7628H142.623V81.0632H162.156V86.7628H155.877ZM174.562 97.4567H172.8V106.833H165.833V81.0632H174.277C181.283 81.0632 184.786 83.601 184.786 88.6766C184.786 91.6649 183.328 93.976 180.413 95.61L187.917 106.833H180.027L174.562 97.4567ZM172.8 86.3347V92.2189H174.101C176.535 92.2189 177.752 91.1444 177.752 88.9956C177.752 87.2216 176.56 86.3347 174.176 86.3347H172.8ZM197.26 106.833H190.259V81.0632H197.26V106.833ZM221.527 89.2642C221.527 92.1405 220.679 94.3621 218.983 95.929C217.282 97.5015 214.87 98.2877 211.748 98.2877H209.792V106.833H202.833V81.0632H211.748C214.999 81.0632 217.442 81.7739 219.076 83.1953C220.71 84.6167 221.527 86.6396 221.527 89.2642ZM209.792 86.6872V92.6134H211.059C212.106 92.6134 212.937 92.3196 213.552 91.732C214.168 91.1444 214.476 90.333 214.476 89.2977C214.476 87.5574 213.513 86.6872 211.588 86.6872H209.792Z" fill="#3A3557"/>
<path d="M0.5 119.437V112.831H1.49049L2.76638 116.373L3.25323 117.725H3.28681L3.75687 116.373L5.02436 112.831H6.00646V119.437H5.21743V115.803C5.21743 115.506 5.22862 115.179 5.251 114.821C5.27339 114.468 5.29857 114.143 5.32655 113.847H5.28458L4.74736 115.316L3.47987 118.774H3.00981L1.72552 115.316L1.2051 113.847H1.16313C1.18551 114.143 1.21069 114.468 1.23867 114.821C1.26106 115.179 1.27225 115.506 1.27225 115.803V119.437H0.5ZM13.687 116.751H15.668L15.3574 115.744C15.2343 115.375 15.1195 115.005 15.0132 114.636C14.9069 114.272 14.8006 113.897 14.6943 113.511H14.6523C14.5516 113.897 14.448 114.272 14.3417 114.636C14.2354 115.005 14.1207 115.375 13.9975 115.744L13.687 116.751ZM16.5074 119.437L15.8778 117.423H13.4771L12.8392 119.437H11.983L14.2158 112.831H15.1643L17.4055 119.437H16.5074ZM23.3736 119.437V112.831H24.2382L26.6305 116.978L27.344 118.346H27.386C27.3636 118.01 27.3412 117.663 27.3188 117.305C27.2964 116.947 27.2852 116.595 27.2852 116.248V112.831H28.0827V119.437H27.2097L24.8174 115.274L24.1039 113.914H24.062C24.0899 114.25 24.1151 114.591 24.1375 114.938C24.1599 115.285 24.1711 115.632 24.1711 115.979V119.437H23.3736ZM35.7548 116.751H37.7358L37.4252 115.744C37.3077 115.375 37.193 115.005 37.081 114.636C36.9747 114.272 36.8684 113.897 36.7621 113.511H36.7201C36.6194 113.897 36.5158 114.272 36.4095 114.636C36.3032 115.005 36.1885 115.375 36.0654 115.744L35.7548 116.751ZM38.5752 119.437L37.954 117.423H35.5449L34.907 119.437H34.0508L36.292 112.831H37.2321L39.4733 119.437H38.5752ZM44.963 116.13C44.963 115.604 45.0385 115.128 45.1896 114.703C45.3407 114.278 45.5506 113.92 45.8192 113.629C46.0934 113.332 46.4152 113.105 46.7845 112.949C47.1538 112.786 47.5595 112.705 48.0016 112.705C48.4605 112.705 48.841 112.792 49.1432 112.966C49.451 113.139 49.7028 113.326 49.8987 113.528L49.4202 114.057C49.2523 113.883 49.0593 113.738 48.841 113.62C48.6228 113.503 48.3458 113.444 48.01 113.444C47.6743 113.444 47.3721 113.506 47.1035 113.629C46.8349 113.752 46.6082 113.931 46.4236 114.166C46.2333 114.395 46.0878 114.675 45.9871 115.005C45.8807 115.335 45.8276 115.705 45.8276 116.113C45.8276 116.527 45.8752 116.902 45.9703 117.238C46.071 117.568 46.2137 117.851 46.3984 118.086C46.583 118.321 46.8097 118.503 47.0783 118.631C47.3525 118.76 47.6687 118.825 48.0268 118.825C48.2618 118.825 48.4829 118.788 48.6899 118.715C48.9026 118.648 49.0761 118.553 49.2104 118.43V116.709H47.8086V116.013H49.9742V118.791C49.7616 119.015 49.479 119.199 49.1264 119.345C48.7739 119.485 48.3766 119.555 47.9345 119.555C47.498 119.555 47.0979 119.479 46.7341 119.328C46.3704 119.171 46.057 118.948 45.794 118.657C45.5366 118.366 45.3323 118.008 45.1812 117.582C45.0358 117.151 44.963 116.667 44.963 116.13ZM56.5971 119.437V112.831H60.3996V113.536H57.4281V115.61H59.9379V116.323H57.4281V118.724H60.5003V119.437H56.5971ZM75.3829 119.437V113.536H73.3851V112.831H78.22V113.536H76.2306V119.437H75.3829ZM85.2794 113.503V115.962H86.3874C86.9078 115.962 87.3051 115.856 87.5793 115.643C87.8535 115.431 87.9906 115.112 87.9906 114.686C87.9906 114.25 87.8535 113.942 87.5793 113.763C87.3051 113.589 86.9078 113.503 86.3874 113.503H85.2794ZM89.0231 119.437H88.0746L86.4797 116.651H85.2794V119.437H84.4484V112.831H86.5133C86.8491 112.831 87.1596 112.862 87.445 112.924C87.7304 112.991 87.9738 113.097 88.1753 113.243C88.3824 113.388 88.5418 113.578 88.6538 113.813C88.7713 114.048 88.83 114.339 88.83 114.686C88.83 115.201 88.6957 115.612 88.4271 115.92C88.1585 116.228 87.7976 116.441 87.3443 116.558L89.0231 119.437ZM95.3354 119.437V112.831H96.1748V119.437H95.3354ZM103.024 119.437V112.831H105.047C105.411 112.831 105.744 112.865 106.046 112.932C106.348 112.999 106.603 113.108 106.81 113.259C107.023 113.41 107.188 113.609 107.305 113.855C107.423 114.107 107.481 114.412 107.481 114.77C107.481 115.123 107.423 115.425 107.305 115.677C107.188 115.934 107.023 116.147 106.81 116.315C106.592 116.483 106.334 116.609 106.038 116.692C105.741 116.776 105.411 116.818 105.047 116.818H103.855V119.437H103.024ZM103.855 116.13H104.947C105.523 116.13 105.951 116.021 106.231 115.803C106.511 115.584 106.65 115.24 106.65 114.77C106.65 114.295 106.508 113.964 106.222 113.78C105.943 113.595 105.517 113.503 104.947 113.503H103.855V116.13ZM120.929 119.437V112.831H122.582C123.601 112.831 124.376 113.114 124.907 113.679C125.439 114.239 125.705 115.047 125.705 116.105C125.705 116.625 125.638 117.093 125.503 117.507C125.369 117.921 125.17 118.271 124.907 118.556C124.644 118.841 124.323 119.06 123.942 119.211C123.562 119.362 123.122 119.437 122.624 119.437H120.929ZM121.768 118.749H122.524C123.296 118.749 123.875 118.52 124.261 118.061C124.647 117.596 124.84 116.944 124.84 116.105C124.84 115.265 124.647 114.625 124.261 114.183C123.875 113.735 123.296 113.511 122.524 113.511H121.768V118.749ZM132.16 119.437V112.831H132.999V119.437H132.16ZM139.849 119.437V112.831H143.651V113.536H140.68V115.769H143.198V116.474H140.68V119.437H139.849ZM149.863 119.437V112.831H153.665V113.536H150.694V115.769H153.212V116.474H150.694V119.437H149.863ZM159.868 119.437V112.831H163.679V113.536H160.708V115.61H163.218V116.323H160.708V118.724H163.78V119.437H159.868ZM171.049 113.503V115.962H172.157C172.678 115.962 173.075 115.856 173.349 115.643C173.623 115.431 173.761 115.112 173.761 114.686C173.761 114.25 173.623 113.942 173.349 113.763C173.075 113.589 172.678 113.503 172.157 113.503H171.049ZM174.793 119.437H173.844L172.25 116.651H171.049V119.437H170.218V112.831H172.283C172.619 112.831 172.929 112.862 173.215 112.924C173.5 112.991 173.744 113.097 173.945 113.243C174.152 113.388 174.312 113.578 174.424 113.813C174.541 114.048 174.6 114.339 174.6 114.686C174.6 115.201 174.466 115.612 174.197 115.92C173.928 116.228 173.567 116.441 173.114 116.558L174.793 119.437ZM181.105 119.437V112.831H184.916V113.536H181.945V115.61H184.446V116.323H181.945V118.724H185.017V119.437H181.105ZM191.447 119.437V112.831H192.32L194.704 116.978L195.417 118.346H195.459C195.437 118.01 195.414 117.663 195.392 117.305C195.369 116.947 195.358 116.595 195.358 116.248V112.831H196.156V119.437H195.291L192.89 115.274L192.177 113.914H192.135C192.163 114.25 192.188 114.591 192.211 114.938C192.233 115.285 192.244 115.632 192.244 115.979V119.437H191.447ZM204.373 119.437V113.536H202.376V112.831H207.211V113.536H205.221V119.437H204.373ZM213.439 119.437V112.831H214.278V118.724H217.166V119.437H213.439ZM223.671 119.437V116.877L221.69 112.831H222.588L223.445 114.695C223.551 114.935 223.654 115.173 223.755 115.408C223.856 115.643 223.962 115.884 224.074 116.13H224.116C224.228 115.884 224.343 115.643 224.46 115.408C224.572 115.173 224.678 114.935 224.779 114.695L225.627 112.831H226.5L224.519 116.877V119.437H223.671Z" fill="#EB5F52"/>
<defs>
<clipPath id="clip0_31_31843">
<rect width="72.1935" height="72.196" fill="white" transform="translate(77.4062)"/>
</clipPath>
</defs>
</svg>
