<svg width="87" height="86" viewBox="0 0 87 86" fill="none" xmlns="http://www.w3.org/2000/svg">
<g clip-path="url(#clip0_1_758)">
<path d="M24.8398 16.6485C18.4122 15.7806 11.8923 17.3464 6.55978 21.0385C4.72045 22.3312 3.09133 23.8996 1.72978 25.6885C1.51978 25.9585 1.42978 26.4885 0.969782 26.3285C0.509782 26.1685 0.639782 25.7085 0.629782 25.3285C0.604697 21.4658 1.31746 17.6339 2.72978 14.0385C3.80926 11.1319 5.51579 8.49867 7.72806 6.32616C9.94033 4.15364 12.604 2.49513 15.5298 1.46853C19.8499 -0.091662 24.5441 -0.291675 28.9813 0.895383C33.4185 2.08244 37.3858 4.59965 40.3498 8.10853C44.5898 13.1085 46.3498 19.1085 46.5598 25.4585C46.7098 29.2985 46.5598 33.1585 46.5598 37.0085C46.5598 38.1885 46.1398 38.4185 45.0898 38.1385C39.9598 36.7485 34.7798 35.3985 29.6298 34.0385C21.6298 31.8785 14.2898 32.9085 7.67978 38.0385C5.85513 39.5028 4.26363 41.236 2.95978 43.1785C2.75978 43.4685 2.59978 43.9485 2.16978 43.8185C1.73978 43.6885 1.85978 43.1885 1.87978 42.8185C2.41978 32.6285 6.44978 24.4685 15.5698 19.3385C18.436 17.7994 21.5949 16.8827 24.8398 16.6485Z" fill="#EB5F52"/>
<path d="M62.3797 69.3988C68.6828 70.2989 75.0958 68.8311 80.3797 65.2788C82.079 64.2261 83.5704 62.8703 84.7797 61.2788C84.9864 60.9705 85.2136 60.6765 85.4597 60.3988C85.6897 60.1488 85.8797 59.6888 86.3197 59.8788C86.7597 60.0688 86.5997 60.4488 86.5897 60.7688C86.4997 62.2388 86.4897 63.7688 86.2797 65.1688C85.5097 70.4188 83.7397 75.2488 80.0497 79.1688C77.3105 82.1242 73.7638 84.2105 69.8497 85.1688C66.4179 86.1267 62.8047 86.2368 59.3208 85.4895C55.837 84.7422 52.5868 83.16 49.8497 80.8788C44.8497 76.8788 42.1897 71.3988 41.1397 65.1288C40.2197 59.6788 40.7597 54.1288 40.6297 48.6988C40.6297 47.6988 41.1797 47.6988 41.9397 47.8788L57.7297 52.1388C65.7297 54.2788 73.1597 53.1988 79.7297 47.9688C81.506 46.5339 83.0654 44.8498 84.3597 42.9688C84.5397 42.7188 84.6797 42.2888 85.0697 42.3988C85.4597 42.5088 85.3397 42.9588 85.3297 43.2688C85.0697 55.1388 77.8097 66.3488 65.7297 68.9288C64.6297 69.1188 63.5097 69.2288 62.3797 69.3988Z" fill="#3A3557"/>
<path d="M70.0499 24.2686C70.7699 16.6986 69.0499 9.83864 64.0499 3.95864C63.1599 2.95864 62.0499 2.17864 61.0499 1.22864C60.7799 0.968643 60.1699 0.858643 60.3999 0.348643C60.6299 -0.161357 61.1399 0.0386427 61.5299 0.0386427C64.6844 0.106368 67.8142 0.611176 70.8299 1.53864C79.2899 4.28864 84.6799 10.0386 86.1799 18.7286C87.7399 27.7286 84.5399 35.3286 77.1799 40.8986C72.6921 44.1285 67.3188 45.8987 61.7899 45.9686C57.7899 46.1586 53.7899 46.0286 49.7899 46.0286C48.3499 46.0286 48.2499 45.8786 48.6299 44.4186C50.0899 38.9186 51.6299 33.4186 53.0099 27.9286C55.4599 18.3086 52.2899 8.42864 43.8099 2.48864C43.4599 2.24864 42.8099 2.10864 42.9999 1.56864C43.1899 1.02864 43.7199 1.28864 44.0999 1.30864C53.5699 1.81864 61.3399 5.49864 66.6299 13.6286C68.5879 16.8583 69.7594 20.503 70.0499 24.2686Z" fill="#EB5F52"/>
<path d="M17.1996 62.0387C16.4496 70.0387 18.3796 77.1887 24.0796 83.0387C24.7396 83.7087 25.4996 84.2687 26.2096 84.8887C26.4796 85.1187 26.9996 85.2587 26.8596 85.6787C26.7196 86.0987 26.1596 85.9987 25.7696 85.9987C23.2731 85.9854 20.7866 85.6834 18.3596 85.0987C14.2981 84.2159 10.5457 82.2655 7.48956 79.4487C4.73258 76.8993 2.72373 73.6457 1.67956 70.0387C0.106113 64.9863 0.393449 59.5376 2.48956 54.6787C4.71294 49.4233 8.84289 45.204 14.0496 42.8687C18.2725 40.9331 22.8747 39.9662 27.5196 40.0387H37.4596C38.8696 40.0387 39.0196 40.1987 38.6796 41.5087C37.3196 46.7287 36.0496 51.9287 34.5296 57.0387C33.0057 61.8594 33.0565 67.0401 34.6747 71.8299C36.2929 76.6198 39.3944 80.7699 43.5296 83.6787C43.8296 83.8887 44.4296 83.9887 44.2196 84.5187C44.0696 84.8987 43.5696 84.7887 43.2196 84.7687C32.7196 84.1187 24.4096 79.8687 19.4696 70.1887C18.2331 67.6291 17.4643 64.869 17.1996 62.0387Z" fill="#CBA36E"/>
</g>
<defs>
<clipPath id="clip0_1_758">
<rect width="86.0061" height="86.009" fill="white" transform="translate(0.620117)"/>
</clipPath>
</defs>
</svg>
