<svg width="390" height="399" viewBox="0 0 390 399" fill="none" xmlns="http://www.w3.org/2000/svg">
<path d="M386.899 87.2213C387.378 83.7899 382.586 80.9969 378.912 80.6777C377.155 80.5181 375.398 80.8373 373.721 80.1989C370.206 79.0019 368.769 74.3735 365.335 72.9371C362.779 71.8199 359.744 72.8573 357.268 74.0543C354.792 75.3311 352.316 76.9271 349.441 77.0867C346.965 77.2463 344.33 76.3685 342.253 77.5655C340.656 78.4433 339.857 80.2787 338.34 81.3959C336.902 82.4333 335.065 82.6727 333.228 82.7525C331.471 82.8323 329.634 82.8323 327.957 83.6303C326.36 84.3485 325.002 86.1041 325.321 87.8597L386.899 87.2213Z" fill="#EBEBEB"/>
<path d="M248.889 278.422C249.528 277.544 221.415 233.255 221.415 233.255L201.288 230.063L180.603 257.116L171.817 252.966L110.32 276.986L67.192 222.083L60.6429 228.946L43.3917 203.25L32.2902 227.829L15.1988 270.203L3.61812 261.584L-28.4883 294.223H5.53491H26.46H278.919C278.839 294.223 248.25 279.3 248.889 278.422Z" fill="#F5F5F5"/>
<path d="M360.383 293.504C360.383 293.584 268.536 293.744 155.365 293.744C42.1142 293.744 -49.7324 293.664 -49.7324 293.504C-49.7324 293.345 42.0344 293.265 155.365 293.265C268.616 293.265 360.383 293.345 360.383 293.504Z" fill="#E0E0E0"/>
<path d="M345.527 305.235C345.527 305.315 325.561 305.474 300.882 305.474C276.203 305.474 256.236 305.395 256.236 305.235C256.236 305.075 276.203 304.996 300.882 304.996C325.561 305.075 345.527 305.155 345.527 305.235Z" fill="#E0E0E0"/>
<path d="M35.8849 121.855C36.6037 116.827 29.4955 112.757 24.2243 112.358C21.6686 112.119 19.1129 112.518 16.7169 111.72C11.5255 109.885 9.44899 103.181 4.41739 101.107C0.663662 99.5105 -3.72901 100.947 -7.40288 102.782C-11.0767 104.618 -14.6707 106.932 -18.8238 107.171C-22.4178 107.411 -26.2514 106.054 -29.3662 107.81C-31.6823 109.087 -32.8803 111.8 -35.0367 113.396C-37.1133 114.912 -39.8287 115.231 -42.4643 115.391C-45.0999 115.55 -47.7355 115.55 -50.1315 116.668C-52.5275 117.785 -54.4443 120.259 -53.9651 122.812L35.8849 121.855Z" fill="#EBEBEB"/>
<path d="M401.035 204.607C401.594 200.298 395.524 196.707 390.892 196.308C388.655 196.148 386.419 196.468 384.343 195.749C379.87 194.153 378.033 188.328 373.64 186.493C370.366 185.136 366.532 186.333 363.338 187.929C360.143 189.525 357.028 191.52 353.434 191.759C350.319 191.919 346.965 190.802 344.25 192.318C342.253 193.435 341.135 195.749 339.298 197.106C337.461 198.463 335.065 198.702 332.829 198.862C330.592 199.021 328.196 199.021 326.2 199.979C324.123 200.936 322.446 203.091 322.845 205.325L401.035 204.607Z" fill="#F5F5F5"/>
<path d="M250.087 68.3087C250.487 65.2763 246.174 62.7227 242.899 62.4833C241.382 62.3237 239.705 62.5631 238.267 62.0843C235.072 60.9671 233.795 56.8973 230.68 55.5407C228.364 54.5831 225.648 55.4609 223.412 56.5781C221.176 57.6953 218.939 59.1317 216.384 59.2913C214.227 59.4509 211.831 58.6529 209.914 59.6903C208.477 60.4883 207.758 62.1641 206.4 63.1217C205.122 64.0793 203.445 64.2389 201.848 64.3187C200.251 64.3985 198.573 64.3985 197.136 65.1167C195.698 65.8349 194.5 67.3511 194.82 68.8673L250.087 68.3087Z" fill="#F5F5F5"/>
<path d="M473.154 363.09C472.036 341.065 472.516 348.726 471.397 326.701L432.103 304.836L396.722 318.721L390.492 328.776C386.739 334.841 381.547 339.948 375.477 343.699C367.89 348.327 357.747 355.669 354.073 363.09H473.154Z" fill="#E0E0E0"/>
<path d="M-80.3213 309.305L-39.9886 322.631L7.53204 363.09H-80.3213V309.305Z" fill="#E0E0E0"/>
<path d="M406.227 291.03C405.588 288.078 404.789 285.045 403.112 282.572C400.796 279.14 397.122 276.986 393.368 275.31C389.615 273.634 385.701 272.277 382.347 269.963C386.1 276.108 394.646 277.784 399.039 283.529C401.195 286.402 402.074 289.993 402.952 293.504C404.789 301.165 405.907 307.709 407.824 315.369H410.3C409.421 307.15 408.064 299.17 406.227 291.03Z" fill="#E0E0E0"/>
<path d="M332.589 311.38C332.589 311.38 332.429 311.38 332.11 311.459C331.711 311.459 331.231 311.459 330.672 311.459C329.395 311.459 327.558 311.459 325.321 311.539C320.769 311.539 314.619 311.539 307.751 311.619C300.882 311.619 294.732 311.539 290.18 311.539C287.944 311.539 286.187 311.459 284.829 311.459C284.27 311.459 283.791 311.459 283.391 311.459C283.072 311.459 282.912 311.459 282.912 311.38C282.912 311.38 283.072 311.38 283.391 311.3C283.791 311.3 284.27 311.3 284.829 311.3C286.107 311.3 287.944 311.3 290.18 311.22C294.732 311.22 300.882 311.22 307.751 311.14C314.619 311.14 320.769 311.22 325.321 311.22C327.558 311.22 329.315 311.3 330.672 311.3C331.231 311.3 331.711 311.3 332.11 311.3C332.429 311.38 332.589 311.38 332.589 311.38Z" fill="#E0E0E0"/>
<path d="M362.778 323.19C363.816 323.908 364.455 325.105 364.695 326.302C364.934 327.579 364.695 328.856 364.375 330.053C363.656 332.367 361.899 334.601 360.062 336.197C358.385 334.043 358.465 330.93 358.625 329.334C358.785 326.861 360.781 322.392 362.778 323.19Z" fill="#FF725E"/>
<path d="M361.74 340.586C361.66 339.15 362.459 337.793 363.657 337.075C364.855 336.357 366.372 336.197 367.73 336.596C368.369 336.756 369.008 337.075 369.327 337.634C369.567 338.192 369.407 338.831 369.008 339.389C368.608 339.868 368.049 340.187 367.49 340.427C365.573 341.145 363.577 341.544 361.74 340.586Z" fill="#FF725E"/>
<path d="M357.826 347.449C357.826 347.449 357.906 347.29 357.986 346.97C358.146 346.651 358.305 346.172 358.465 345.694C358.864 344.656 359.424 343.06 360.622 341.704C361.74 340.347 363.177 339.389 364.216 338.99C364.775 338.831 365.254 338.671 365.573 338.671C365.733 338.671 365.893 338.671 365.973 338.671C366.052 338.671 366.132 338.671 366.132 338.671C366.132 338.751 365.413 338.751 364.295 339.15C363.257 339.549 361.899 340.507 360.781 341.863C359.663 343.22 359.104 344.736 358.625 345.773C358.385 346.332 358.225 346.731 358.066 347.05C357.906 347.29 357.826 347.449 357.826 347.449Z" fill="#263238"/>
<path d="M361.58 326.701C361.58 326.701 361.58 326.781 361.58 326.94C361.58 327.1 361.501 327.339 361.501 327.579C361.421 328.137 361.341 328.935 361.181 329.893C360.862 331.808 360.462 334.442 359.903 337.394C359.344 340.347 358.785 342.98 358.386 344.816C358.146 345.773 357.986 346.571 357.907 347.05C357.827 347.289 357.827 347.529 357.747 347.688C357.747 347.848 357.667 347.928 357.667 347.928C357.667 347.928 357.667 347.848 357.667 347.688C357.667 347.529 357.747 347.289 357.747 347.05C357.827 346.491 357.986 345.693 358.226 344.816C358.625 342.9 359.105 340.267 359.664 337.314C360.223 334.362 360.622 331.728 360.942 329.813C361.101 328.856 361.181 328.058 361.341 327.499C361.421 327.26 361.421 327.02 361.421 326.861C361.58 326.701 361.58 326.701 361.58 326.701Z" fill="#263238"/>
<path d="M357.986 341.384C358.066 338.432 356.549 335.479 354.153 333.724C353.514 333.245 352.715 332.926 352.076 333.325C351.437 333.724 351.357 334.681 351.517 335.399C352.156 338.512 354.792 341.065 357.906 341.624" fill="#FF725E"/>
<path d="M353.993 336.038C353.993 336.038 354.153 336.117 354.392 336.277C354.552 336.357 354.632 336.437 354.792 336.596C354.952 336.756 355.191 336.915 355.351 337.075C355.511 337.235 355.75 337.474 355.99 337.713C356.229 337.953 356.389 338.192 356.629 338.511C357.028 339.15 357.427 339.788 357.747 340.586C358.066 341.384 358.226 342.182 358.306 342.9C358.306 343.299 358.386 343.619 358.386 343.938C358.386 344.257 358.386 344.576 358.386 344.816C358.386 345.055 358.306 345.294 358.306 345.534C358.306 345.773 358.226 345.933 358.226 346.092C358.146 346.412 358.066 346.571 358.066 346.571C358.066 346.571 358.226 345.933 358.306 344.816C358.306 344.576 358.306 344.257 358.306 343.938C358.306 343.619 358.306 343.299 358.226 342.9C358.146 342.182 357.986 341.464 357.667 340.666C357.348 339.868 357.028 339.23 356.629 338.591C356.389 338.272 356.229 338.033 355.99 337.793C355.83 337.554 355.59 337.314 355.431 337.155C354.552 336.516 353.993 336.117 353.993 336.038Z" fill="#263238"/>
<path d="M-8.68098 362.212C-9.00045 354.152 -9.00045 345.374 -4.44805 338.751C-1.89231 335 2.02115 332.287 6.17422 330.452C10.3273 328.616 14.7998 327.499 19.1925 326.382C14.2408 333.245 3.13928 333.324 -1.65272 340.427C-3.09032 342.501 -3.72925 344.975 -4.36818 347.449C-5.64605 352.476 -6.84405 357.264 -8.12191 362.292" fill="#455A64"/>
<path d="M383.145 150.742C383.145 150.663 385.301 150.503 387.937 150.503C390.572 150.503 392.729 150.583 392.729 150.742C392.729 150.822 390.572 150.982 387.937 150.982C385.301 150.982 383.145 150.902 383.145 150.742Z" fill="#263238"/>
<path d="M364.057 150.742C364.057 150.663 366.213 150.503 368.849 150.503C371.484 150.503 373.641 150.583 373.641 150.742C373.641 150.822 371.484 150.982 368.849 150.982C366.213 150.982 364.057 150.902 364.057 150.742Z" fill="#263238"/>
<path d="M344.889 150.742C344.889 150.663 347.045 150.503 349.681 150.503C352.316 150.503 354.473 150.583 354.473 150.742C354.473 150.822 352.316 150.982 349.681 150.982C347.045 150.982 344.889 150.902 344.889 150.742Z" fill="#263238"/>
<path d="M325.721 150.343C325.721 150.264 327.877 150.343 330.513 150.503C333.148 150.583 335.305 150.663 335.305 150.822C335.305 150.902 333.148 151.062 330.513 150.982C327.877 150.822 325.721 150.423 325.721 150.343Z" fill="#263238"/>
<path d="M308.789 142.603C308.869 142.523 310.226 144.199 312.383 145.715C314.539 147.231 316.536 148.029 316.456 148.189C316.456 148.268 315.897 148.109 315.098 147.79C314.3 147.47 313.181 146.912 312.143 146.114C309.987 144.518 308.709 142.682 308.789 142.603Z" fill="#263238"/>
<path d="M303.597 124.488C303.677 124.488 303.837 126.643 304.156 129.196C304.476 131.83 304.955 133.904 304.795 133.904C304.715 133.904 304.076 131.83 303.757 129.196C303.437 126.722 303.437 124.488 303.597 124.488Z" fill="#263238"/>
<path d="M296.65 107.092C296.729 107.012 298.247 108.608 299.684 110.842C301.122 113.077 301.761 115.152 301.681 115.231C301.601 115.311 300.723 113.316 299.285 111.082C297.848 108.847 296.49 107.172 296.65 107.092Z" fill="#263238"/>
<path d="M280.915 96.5581C280.915 96.4783 283.072 96.9571 285.468 98.1541C287.864 99.3511 289.621 100.628 289.541 100.708C289.461 100.787 287.704 99.6703 285.308 98.4733C282.912 97.4359 280.835 96.7177 280.915 96.5581Z" fill="#263238"/>
<path d="M261.987 95.8399C261.987 95.7601 264.064 95.1217 266.699 94.9621C268.057 94.8823 269.255 94.8823 270.134 94.8823C271.012 94.9621 271.571 94.9621 271.571 95.0419C271.571 95.1217 271.012 95.1217 270.134 95.2015C269.255 95.2015 268.057 95.2813 266.779 95.3611C264.064 95.6005 261.987 95.9995 261.987 95.8399Z" fill="#263238"/>
<path d="M245.295 104.777C245.215 104.698 246.653 103.102 248.809 101.506C250.966 99.9097 252.962 99.0319 252.962 99.1117C253.042 99.1915 251.125 100.229 249.049 101.825C246.972 103.421 245.375 104.857 245.295 104.777Z" fill="#263238"/>
<path d="M236.989 121.615C236.909 121.615 236.989 119.461 237.788 116.907C238.587 114.353 239.705 112.438 239.785 112.518C239.864 112.598 238.986 114.513 238.187 116.987C237.389 119.54 237.069 121.615 236.989 121.615Z" fill="#263238"/>
<path d="M236.509 140.767C236.429 140.767 236.35 138.613 236.35 135.979C236.35 133.346 236.509 131.191 236.589 131.191C236.668 131.191 236.748 133.346 236.748 135.979C236.748 138.613 236.668 140.767 236.509 140.767Z" fill="#263238"/>
<path d="M236.27 159.919C236.19 159.919 236.11 157.765 236.11 155.131C236.11 152.498 236.27 150.343 236.349 150.343C236.429 150.343 236.509 152.498 236.509 155.131C236.509 157.765 236.349 159.919 236.27 159.919Z" fill="#263238"/>
<path d="M235.95 178.992C235.871 178.992 235.791 176.837 235.791 174.204C235.791 171.57 235.95 169.416 236.03 169.416C236.11 169.416 236.19 171.57 236.19 174.204C236.19 176.917 236.11 178.992 235.95 178.992Z" fill="#263238"/>
<path d="M230.68 197.026C230.6 196.947 231.798 195.191 232.916 192.797C234.034 190.403 234.673 188.408 234.833 188.408C234.913 188.408 234.513 190.563 233.315 192.957C232.117 195.43 230.759 197.106 230.68 197.026Z" fill="#263238"/>
<path d="M215.664 208.438C215.585 208.358 217.581 207.56 219.897 206.283C222.213 205.006 223.971 203.809 224.05 203.889C224.13 203.969 222.453 205.405 220.137 206.682C217.821 207.959 215.744 208.597 215.664 208.438Z" fill="#263238"/>
<path d="M196.815 210.672C196.815 210.592 198.972 210.512 201.607 210.512C202.246 210.512 202.885 210.512 203.444 210.512C204.003 210.512 204.483 210.512 204.962 210.512C205.84 210.512 206.399 210.512 206.399 210.592C206.399 210.672 205.84 210.752 205.042 210.832C204.563 210.832 204.003 210.911 203.524 210.911C202.965 210.911 202.326 210.911 201.687 210.911C198.972 210.911 196.815 210.832 196.815 210.672Z" fill="#263238"/>
<path d="M178.686 205.166C178.766 205.086 180.603 206.203 182.919 207.32C185.315 208.438 187.312 209.076 187.312 209.236C187.312 209.316 185.155 208.837 182.759 207.719C180.363 206.602 178.606 205.246 178.686 205.166Z" fill="#263238"/>
<path d="M166.786 190.642C166.866 190.562 167.664 192.557 169.022 194.872C170.38 197.106 171.658 198.782 171.578 198.862C171.498 198.941 169.98 197.345 168.623 195.031C167.265 192.717 166.626 190.642 166.786 190.642Z" fill="#263238"/>
<path d="M164.948 171.73C165.028 171.73 165.187 173.884 165.187 176.518C165.187 179.151 165.108 181.306 164.948 181.306C164.789 181.306 164.709 179.151 164.709 176.518C164.709 173.884 164.868 171.73 164.948 171.73Z" fill="#263238"/>
<path d="M164.948 152.578C165.028 152.578 165.187 154.732 165.187 157.366C165.187 159.999 165.108 162.154 164.948 162.154C164.868 162.154 164.709 159.999 164.709 157.366C164.709 154.732 164.868 152.578 164.948 152.578Z" fill="#263238"/>
<path d="M164.948 133.426C165.028 133.426 165.187 135.58 165.187 138.214C165.187 140.847 165.108 143.002 164.948 143.002C164.868 143.002 164.709 140.847 164.709 138.214C164.709 135.58 164.868 133.426 164.948 133.426Z" fill="#263238"/>
<path d="M164.948 114.274C165.028 114.274 165.187 116.428 165.187 119.062C165.187 121.695 165.108 123.85 164.948 123.85C164.868 123.85 164.709 121.695 164.709 119.062C164.709 116.428 164.868 114.274 164.948 114.274Z" fill="#263238"/>
<path d="M164.869 95.2014C164.949 95.2014 165.028 95.76 165.028 96.6378C165.108 97.5156 165.108 98.7126 165.108 99.9894C165.108 102.623 165.028 104.777 164.869 104.777C164.789 104.777 164.63 102.623 164.63 99.9894C164.63 98.6328 164.63 97.4358 164.71 96.6378C164.789 95.76 164.869 95.2014 164.869 95.2014Z" fill="#263238"/>
<path d="M157.681 77.8848C157.761 77.805 159.278 79.3212 160.716 81.6354C162.154 83.8698 162.872 85.9446 162.793 85.9446C162.713 86.0244 161.834 84.0294 160.397 81.795C158.959 79.5606 157.601 77.9646 157.681 77.8848Z" fill="#263238"/>
<path d="M141.628 67.9896C141.628 67.9098 143.785 68.3088 146.26 69.3462C148.736 70.3836 150.493 71.6604 150.414 71.7402C150.334 71.82 148.497 70.7826 146.101 69.7452C143.625 68.7078 141.548 68.0694 141.628 67.9896Z" fill="#263238"/>
<path d="M122.62 67.3513C122.62 67.2715 124.697 66.7129 127.332 66.5533C128.69 66.4735 129.888 66.5533 130.767 66.5533C131.645 66.5533 132.204 66.6331 132.204 66.7129C132.204 66.7927 131.645 66.7927 130.767 66.8725C129.888 66.9523 128.69 66.8725 127.412 66.9523C124.697 67.1119 122.62 67.4311 122.62 67.3513Z" fill="#263238"/>
<path d="M105.768 75.8899C105.688 75.8101 107.126 74.2141 109.362 72.6979C111.518 71.1817 113.515 70.3039 113.595 70.3837C113.675 70.4635 111.758 71.5009 109.601 73.0171C107.365 74.5333 105.848 75.9697 105.768 75.8899Z" fill="#263238"/>
<path d="M96.9029 92.4086C96.8231 92.4086 96.9828 90.254 97.8613 87.7004C98.7399 85.1468 99.858 83.3114 99.9379 83.3912C100.018 83.471 99.0593 85.3862 98.2607 87.86C97.3821 90.3338 96.9828 92.4086 96.9029 92.4086Z" fill="#263238"/>
<path d="M96.5028 111.56C96.4231 111.56 96.2637 109.406 96.2637 106.772C96.2637 104.139 96.3434 101.984 96.5028 101.984C96.6622 101.984 96.7419 104.139 96.7419 106.772C96.7419 109.406 96.6622 111.56 96.5028 111.56Z" fill="#263238"/>
<path d="M96.5028 130.633C96.4231 130.633 96.2637 128.478 96.2637 125.845C96.2637 123.211 96.3434 121.057 96.5028 121.057C96.6622 121.057 96.7419 123.211 96.7419 125.845C96.7419 128.558 96.6622 130.633 96.5028 130.633Z" fill="#263238"/>
<path d="M96.024 149.785C95.8643 149.785 96.2636 147.63 96.2636 144.997C96.2636 142.363 96.3435 140.209 96.5032 140.209C96.5831 140.209 96.7429 142.363 96.7429 144.997C96.7429 147.71 96.1838 149.785 96.024 149.785Z" fill="#263238"/>
<path d="M86.6796 166.064C86.5998 165.984 88.1971 164.548 89.7944 162.473C91.4716 160.478 92.5898 158.643 92.6696 158.643C92.7495 158.722 91.7911 160.638 90.1139 162.712C88.4367 164.787 86.7595 166.144 86.6796 166.064Z" fill="#263238"/>
<path d="M69.5879 174.124C69.5879 173.964 71.6644 173.645 74.2201 172.847C76.7759 172.049 78.6927 171.251 78.7726 171.331C78.8524 171.411 76.9356 172.448 74.3799 173.246C71.7443 174.044 69.5879 174.204 69.5879 174.124Z" fill="#263238"/>
<path d="M50.4199 174.762C50.4199 174.682 52.5763 174.523 55.2119 174.523C57.8475 174.523 60.0039 174.523 60.0039 174.682C60.0039 174.842 57.8475 174.922 55.2119 174.922C52.5763 174.922 50.4199 174.842 50.4199 174.762Z" fill="#263238"/>
<path d="M31.332 175.001C31.332 174.922 33.4884 174.762 36.124 174.762C38.7596 174.762 40.916 174.762 40.916 174.922C40.916 175.001 38.7596 175.161 36.124 175.161C33.4086 175.161 31.332 175.161 31.332 175.001Z" fill="#263238"/>
<path d="M12.1641 175.241C12.1641 175.161 14.3205 175.001 16.9561 175.001C19.5917 175.001 21.7481 175.001 21.7481 175.161C21.7481 175.241 19.5917 175.4 16.9561 175.4C14.3205 175.48 12.1641 175.4 12.1641 175.241Z" fill="#263238"/>
<path d="M-7.00391 175.56C-7.00391 175.48 -4.84751 175.321 -2.21191 175.321C0.423694 175.321 2.58009 175.321 2.58009 175.48C2.58009 175.64 0.423694 175.72 -2.21191 175.72C-4.84751 175.72 -7.00391 175.64 -7.00391 175.56Z" fill="#263238"/>
<path d="M137.874 54.8227C137.874 51.3115 134.679 48.5185 131.085 49.2367C128.769 49.6357 127.012 51.5509 126.613 53.7853C126.373 55.2217 126.693 56.5783 127.332 57.6955C127.571 58.0945 127.811 58.3339 128.13 58.7329L131.405 63.1219C131.804 63.6805 132.603 63.6805 133.082 63.1219L136.356 58.8127C136.356 58.8127 136.995 58.0945 137.155 57.6955C137.554 56.8177 137.874 55.8601 137.874 54.8227ZM132.203 57.2965C130.846 57.2965 129.728 56.1793 129.728 54.8227C129.728 53.4661 130.846 52.3489 132.203 52.3489C133.561 52.3489 134.679 53.4661 134.679 54.8227C134.679 56.1793 133.561 57.2965 132.203 57.2965Z" fill="#FF725E"/>
<path d="M353.754 139.012C353.754 135.5 350.559 132.707 346.965 133.426C344.649 133.825 342.892 135.74 342.493 137.974C342.253 139.411 342.573 140.767 343.211 141.884C343.451 142.283 343.691 142.523 344.01 142.922L347.285 147.311C347.684 147.869 348.483 147.869 348.962 147.311L352.236 143.002C352.236 143.002 352.875 142.283 353.035 141.884C353.514 141.086 353.754 140.129 353.754 139.012ZM348.083 141.565C346.726 141.565 345.607 140.448 345.607 139.091C345.607 137.735 346.726 136.618 348.083 136.618C349.441 136.618 350.559 137.735 350.559 139.091C350.559 140.448 349.441 141.565 348.083 141.565Z" fill="#FF725E"/>
<path d="M273.727 82.6728C273.727 79.1616 270.533 76.3686 266.939 77.0868C264.623 77.4858 262.866 79.401 262.466 81.6354C262.227 83.0718 262.546 84.4284 263.185 85.5456C263.425 85.9446 263.664 86.184 263.984 86.583L267.258 90.972C267.658 91.5306 268.456 91.5306 268.935 90.972L272.21 86.6628C272.21 86.6628 272.849 85.9446 273.009 85.5456C273.488 84.7476 273.727 83.79 273.727 82.6728ZM268.057 85.1466C266.699 85.1466 265.581 84.0294 265.581 82.6728C265.581 81.3162 266.699 80.199 268.057 80.199C269.415 80.199 270.533 81.3162 270.533 82.6728C270.533 84.0294 269.415 85.1466 268.057 85.1466Z" fill="#455A64"/>
<path d="M39.0791 158.483C39.0791 154.174 35.1657 150.742 30.6931 151.54C27.8978 152.099 25.5817 154.333 25.1025 157.206C24.783 158.962 25.1823 160.637 25.981 161.994C26.2206 162.473 26.6199 162.792 26.9394 163.271L31.0126 168.697C31.4918 169.336 32.5301 169.336 33.0093 168.697L37.0026 163.351C37.0026 163.351 37.7214 162.473 38.0409 161.994C38.6798 160.957 39.0791 159.76 39.0791 158.483ZM32.0509 161.515C30.3737 161.515 28.9361 160.159 28.9361 158.403C28.9361 156.727 30.2938 155.291 32.0509 155.291C33.7281 155.291 35.1657 156.647 35.1657 158.403C35.0858 160.159 33.7281 161.515 32.0509 161.515Z" fill="#455A64"/>
<path d="M166.547 136.538C162.234 136.139 157.841 137.336 153.928 139.171C149.775 141.086 145.781 143.959 143.705 148.109C141.628 152.179 141.868 157.685 145.142 160.957C138.833 162.632 134.121 168.218 132.124 174.443C130.128 180.667 130.527 187.37 131.805 193.754C132.364 196.787 133.482 200.138 136.277 201.415C138.034 202.293 140.271 202.054 141.948 203.091C143.625 204.128 144.424 205.964 145.462 207.64C147.459 210.672 150.813 212.906 154.407 213.545C158.001 214.183 161.914 213.305 164.87 211.151L177.808 142.603C175.172 138.932 170.86 136.937 166.547 136.538Z" fill="#455A64"/>
<path d="M175.252 143.959C175.252 143.959 174.933 144.358 174.374 144.997C173.815 145.635 172.936 146.593 171.818 147.79C169.582 150.104 166.467 153.296 162.394 156.009C158.321 158.722 153.928 160.159 150.733 160.478C149.136 160.637 147.858 160.637 146.9 160.558C146.421 160.558 146.101 160.478 145.861 160.398C145.622 160.398 145.542 160.318 145.542 160.318C145.542 160.318 146.021 160.318 146.9 160.398C147.778 160.398 149.056 160.398 150.653 160.159C153.768 159.76 158.081 158.323 162.154 155.61C166.227 152.897 169.342 149.785 171.658 147.55C172.777 146.433 173.655 145.555 174.294 144.837C174.853 144.278 175.173 143.879 175.252 143.959Z" fill="#263238"/>
<path d="M150.094 164.468C150.014 164.468 149.855 164.149 149.695 163.51C149.535 162.872 149.455 161.994 149.535 161.036C149.695 160.079 150.094 159.281 150.414 158.722C150.733 158.164 151.053 157.924 151.133 158.004C151.212 158.084 150.254 159.281 149.935 161.116C149.615 162.952 150.174 164.388 150.094 164.468Z" fill="#263238"/>
<path d="M154.407 167.021C154.407 167.021 154.487 167.181 154.567 167.42C154.647 167.66 154.807 168.059 154.966 168.537C155.286 169.495 155.765 170.931 156.164 172.767C156.963 176.358 157.522 181.625 156.164 187.131C154.727 192.637 151.532 196.946 148.737 199.34C147.299 200.537 146.021 201.335 145.143 201.814C144.663 202.053 144.344 202.213 144.104 202.293C143.865 202.373 143.705 202.452 143.705 202.452C143.705 202.452 144.184 202.133 145.063 201.654C145.941 201.176 147.219 200.298 148.577 199.101C151.292 196.707 154.407 192.477 155.765 187.051C157.123 181.625 156.643 176.438 155.925 172.847C155.525 171.011 155.126 169.655 154.807 168.617C154.567 167.58 154.407 167.021 154.407 167.021Z" fill="#263238"/>
<path d="M156.643 177.794C156.643 177.794 156.324 177.714 155.685 177.555C155.046 177.395 154.167 177.156 153.049 176.916C150.813 176.358 147.698 175.799 144.184 175.48C140.67 175.161 137.555 175.161 135.239 175.32C134.121 175.4 133.163 175.48 132.524 175.48C131.885 175.56 131.565 175.56 131.485 175.48C131.485 175.48 131.805 175.4 132.444 175.32C133.083 175.241 134.041 175.081 135.159 175.001C137.475 174.842 140.67 174.762 144.184 175.081C147.698 175.4 150.813 176.039 153.049 176.597C154.167 176.916 155.046 177.156 155.685 177.395C156.324 177.635 156.643 177.794 156.643 177.794Z" fill="#263238"/>
<g opacity="0.3">
<path d="M146.021 160.398C150.333 163.191 156.243 162.872 160.796 160.558C165.428 158.243 168.783 153.854 170.54 148.987C164.55 155.929 155.684 160.957 146.021 160.398Z" fill="black"/>
</g>
<g opacity="0.3">
<path d="M143.705 202.373C147.219 202.213 150.813 200.138 152.81 197.266C154.807 194.393 155.765 190.882 156.164 187.37C154.886 190.403 153.609 193.276 151.772 195.989C150.893 197.345 149.535 198.303 148.337 199.42C147.139 200.537 145.223 201.575 143.705 202.373Z" fill="black"/>
</g>
<path d="M148.178 175.719C148.257 175.719 148.497 176.517 148.737 177.794C148.896 178.433 149.056 179.231 149.296 180.029C149.375 180.428 149.455 180.986 149.296 181.465C149.136 181.944 148.657 182.502 148.018 182.423C147.379 182.343 146.979 181.864 146.82 181.385C146.66 180.827 146.74 180.348 146.82 179.949C147.059 179.071 147.299 178.353 147.459 177.714C147.858 176.517 148.178 175.719 148.178 175.719C148.257 175.719 148.018 176.517 147.698 177.794C147.539 178.512 147.299 179.231 147.139 180.029C147.059 180.428 146.98 180.906 147.139 181.305C147.299 181.704 147.618 182.024 148.018 182.103C148.417 182.103 148.737 181.784 148.896 181.385C149.056 180.986 148.976 180.587 148.896 180.108C148.657 179.231 148.577 178.433 148.497 177.794C148.337 176.597 148.178 175.799 148.178 175.719Z" fill="#263238"/>
<path d="M167.105 150.104C167.105 150.184 166.147 149.545 164.55 148.588C162.952 147.63 160.796 146.353 158.32 145.236C155.764 144.119 153.368 143.401 151.611 143.081C149.854 142.762 148.656 142.762 148.656 142.682C148.656 142.682 148.976 142.603 149.455 142.603C149.934 142.603 150.733 142.682 151.611 142.762C153.448 143.002 155.924 143.64 158.48 144.837C161.036 146.034 163.192 147.311 164.709 148.348C165.508 148.827 166.067 149.306 166.467 149.545C166.866 149.785 167.105 150.104 167.105 150.104Z" fill="#263238"/>
<path d="M165.908 149.545C165.988 149.545 165.988 149.785 165.748 150.184C165.509 150.503 165.03 150.902 164.311 150.742L164.071 150.662L164.231 150.423C164.471 149.864 165.03 149.545 165.349 149.465C165.748 149.386 165.988 149.386 165.988 149.465C165.988 149.545 165.749 149.625 165.509 149.785C165.189 149.944 164.87 150.263 164.63 150.662L164.471 150.343C164.95 150.423 165.349 150.184 165.589 149.944C165.748 149.785 165.828 149.545 165.908 149.545Z" fill="#263238"/>
<path d="M233.315 148.029C233.315 148.029 230.12 143.799 230.12 142.124L231.478 132.228C231.478 132.228 232.037 131.271 232.915 132.867C233.714 134.383 233.235 136.697 233.235 136.697L233.794 139.011L234.992 137.256L236.35 130.632C236.35 130.632 237.228 125.844 237.947 126.323C238.666 126.802 238.905 128.238 238.506 130.233C238.107 132.308 237.628 134.942 237.628 134.942C237.628 134.942 237.548 135.74 238.267 134.383C239.065 133.026 239.864 127.281 240.183 126.483C240.503 125.685 240.583 123.69 241.781 123.77C242.979 123.849 242.26 126.483 242.26 126.483L241.142 135.021C241.142 135.021 242.26 131.59 242.42 131.031C242.659 130.473 242.979 128.558 243.378 127.6C243.777 126.563 244.336 126.084 244.895 126.084C245.854 126.164 245.854 127.041 245.854 127.041L244.097 134.303C244.097 134.303 243.138 137.655 243.218 137.814C243.298 138.054 244.496 136.458 244.496 136.458L245.455 134.064C245.455 134.064 246.253 130.712 247.132 130.632C248.01 130.553 248.09 131.191 248.09 131.191L246.653 137.336L243.937 144.278L241.381 149.545C241.381 149.545 237.787 148.986 237.628 149.146C237.548 149.465 233.315 148.029 233.315 148.029Z" fill="#FFBE9D"/>
<path d="M239.704 145.076C239.624 145.076 239.384 144.518 238.985 143.56C238.506 142.682 237.787 141.326 236.349 140.767C235.71 140.528 235.071 140.448 234.432 140.608L234.193 140.687L234.113 140.448C233.873 139.411 233.554 138.533 233.394 137.894C233.234 137.256 233.155 136.857 233.234 136.857C233.234 136.857 233.394 137.176 233.634 137.815C233.873 138.453 234.193 139.251 234.512 140.448L234.273 140.288C234.912 140.049 235.71 140.129 236.429 140.448C237.228 140.767 237.867 141.326 238.266 141.884C238.665 142.443 238.985 143.081 239.145 143.56C239.624 144.438 239.704 145.076 239.704 145.076Z" fill="#EB996E"/>
<path d="M205.681 143.241L223.412 169.655L231.398 146.593L242.26 149.306C242.26 149.306 237.788 180.268 236.11 183.38C234.433 186.413 229.082 190.882 222.613 190.004C216.064 189.126 202.966 171.49 202.966 171.49L205.681 143.241Z" fill="#FF725E"/>
<path d="M225.568 180.268C225.409 180.268 225.968 177.635 225.249 174.522C224.61 171.41 223.013 169.256 223.172 169.176C223.172 169.176 223.652 169.655 224.211 170.532C224.77 171.49 225.329 172.847 225.728 174.443C226.048 176.039 226.127 177.555 225.968 178.592C225.808 179.63 225.568 180.268 225.568 180.268Z" fill="#263238"/>
<g opacity="0.3">
<path d="M207.039 177.076C208.237 176.517 208.956 175.241 209.196 173.964C209.435 172.687 209.275 171.33 209.116 170.054C208.397 164.867 207.439 159.44 206.72 154.173L207.039 176.438" fill="black"/>
</g>
<g opacity="0.3">
<path d="M225.728 178.991C226.447 178.911 227.006 178.353 227.325 177.714C227.645 177.076 227.645 176.358 227.645 175.64C227.405 172.926 225.728 170.453 223.252 169.256C224.929 172.208 225.967 175.64 225.728 178.991Z" fill="black"/>
</g>
<path d="M226.048 315.369L236.191 338.352L265.103 326.222C263.745 323.509 245.296 324.866 245.296 324.866L238.906 309.225L226.048 315.369Z" fill="#FF725E"/>
<g opacity="0.6">
<path d="M236.909 326.861C236.43 327.26 236.27 328.058 236.67 328.537C237.069 329.015 237.868 329.175 238.347 328.776C238.826 328.377 238.986 327.419 238.587 327.02C238.187 326.542 237.229 326.462 236.829 326.941" fill="white"/>
</g>
<g opacity="0.6">
<path d="M236.111 338.432L235.232 336.038L263.266 325.265C263.266 325.265 264.783 325.265 265.023 326.222L236.111 338.432Z" fill="white"/>
</g>
<path d="M245.775 325.025C245.854 325.185 245.136 325.504 244.656 326.302C244.097 327.02 244.017 327.818 243.858 327.818C243.698 327.818 243.538 326.941 244.177 326.063C244.816 325.025 245.775 324.866 245.775 325.025Z" fill="#263238"/>
<path d="M250.167 324.706C250.247 324.866 249.768 325.345 249.528 326.143C249.289 326.941 249.448 327.659 249.289 327.659C249.129 327.738 248.73 326.94 249.049 325.983C249.289 324.945 250.087 324.546 250.167 324.706Z" fill="#263238"/>
<path d="M253.283 327.499C253.203 327.579 252.644 326.94 252.724 326.063C252.724 325.105 253.283 324.546 253.363 324.626C253.522 324.706 253.203 325.265 253.203 326.063C253.203 326.781 253.442 327.419 253.283 327.499Z" fill="#263238"/>
<path d="M243.938 321.195C243.938 321.355 243.219 321.434 242.42 321.833C241.621 322.232 241.142 322.711 240.982 322.631C240.823 322.552 241.222 321.754 242.18 321.355C243.139 320.876 243.938 321.115 243.938 321.195Z" fill="#263238"/>
<path d="M124.697 337.953L123.419 325.664L133.642 312.736L121.103 304.676L120.783 305.155L114.394 314.811L106.088 321.354L119.266 342.98L132.124 342.102C132.124 342.182 131.006 339.15 124.697 337.953Z" fill="#FF725E"/>
<g opacity="0.6">
<path d="M106.088 321.354L119.266 342.98L132.124 342.182L130.527 340.347L120.065 340.427L107.845 319.998L106.088 321.354Z" fill="white"/>
</g>
<path d="M124.217 332.287C124.138 332.447 123.339 332.048 122.381 332.128C121.422 332.207 120.703 332.686 120.544 332.527C120.384 332.447 121.103 331.649 122.301 331.569C123.579 331.489 124.377 332.207 124.217 332.287Z" fill="#263238"/>
<path d="M123.818 329.255C123.659 329.334 123.099 328.616 122.061 328.536C121.023 328.377 120.224 328.935 120.144 328.776C120.065 328.696 120.224 328.457 120.544 328.297C120.863 328.058 121.422 327.898 122.061 327.978C122.7 328.058 123.179 328.377 123.499 328.696C123.818 329.015 123.898 329.255 123.818 329.255Z" fill="#263238"/>
<path d="M123.658 325.344C123.499 325.424 123.019 324.706 122.141 324.467C121.262 324.227 120.464 324.546 120.384 324.387C120.384 324.307 120.464 324.147 120.863 323.988C121.182 323.828 121.742 323.748 122.301 323.908C122.86 324.068 123.259 324.467 123.499 324.706C123.658 325.105 123.738 325.344 123.658 325.344Z" fill="#263238"/>
<path d="M126.853 322.073C126.693 322.152 126.294 321.434 125.495 320.955C124.696 320.477 123.898 320.477 123.818 320.317C123.738 320.157 124.776 319.918 125.735 320.477C126.773 321.035 127.012 322.073 126.853 322.073Z" fill="#263238"/>
<path d="M128.37 319.359C128.29 319.439 127.811 318.881 127.172 318.083C126.773 317.604 126.374 317.125 125.974 316.646C125.735 316.327 125.495 316.088 125.335 315.689C125.255 315.449 125.255 315.21 125.335 314.891C125.415 314.571 125.814 314.412 126.054 314.412C126.613 314.492 126.933 314.731 127.332 314.97C127.651 315.21 127.971 315.529 128.21 315.768C128.69 316.407 128.929 317.045 129.009 317.604C129.249 318.721 128.849 319.359 128.849 319.359C128.77 319.359 128.929 318.641 128.61 317.684C128.45 317.205 128.21 316.646 127.811 316.088C127.572 315.848 127.332 315.609 127.092 315.369C126.773 315.13 126.453 314.97 126.214 314.97C126.054 314.97 126.054 315.05 125.974 315.13C125.894 315.21 125.894 315.369 125.974 315.529C126.054 315.768 126.294 316.088 126.533 316.407C126.933 316.965 127.252 317.444 127.651 317.923C128.051 318.721 128.45 319.28 128.37 319.359Z" fill="#263238"/>
<path d="M128.85 319.679C128.77 319.679 128.77 319.04 129.409 318.163C130.048 317.365 131.486 316.487 133.163 317.205C133.323 317.285 133.403 317.444 133.403 317.684C133.403 317.843 133.323 318.003 133.243 318.083C133.083 318.322 132.923 318.402 132.843 318.482C132.524 318.721 132.284 318.881 131.965 319.04C131.406 319.36 130.767 319.519 130.288 319.599C129.329 319.759 128.69 319.599 128.69 319.519C128.69 319.439 129.329 319.439 130.208 319.2C130.687 319.04 131.166 318.881 131.725 318.562C131.965 318.402 132.284 318.242 132.524 318.003C132.684 317.923 132.764 317.764 132.843 317.684C132.923 317.604 132.923 317.604 132.843 317.604C132.764 317.524 132.604 317.524 132.444 317.524C132.284 317.524 132.125 317.444 131.965 317.444C131.646 317.444 131.326 317.524 131.086 317.604C130.527 317.764 130.048 318.083 129.729 318.402C129.09 319.12 128.93 319.759 128.85 319.679Z" fill="#263238"/>
<g opacity="0.6">
<path d="M116.311 320.317C116.391 321.195 115.752 321.913 114.874 321.913C113.995 321.993 113.276 321.355 113.276 320.477C113.196 319.599 113.835 318.881 114.714 318.881C115.513 318.801 116.231 319.439 116.311 320.317Z" fill="white"/>
</g>
<path d="M184.198 101.984C184.837 99.3509 185.636 96.7175 186.994 94.4831C188.431 92.1689 190.508 90.2537 193.063 89.4557C195.619 88.7375 198.654 88.8971 201.21 89.6951C203.286 90.3335 204.724 91.4507 206.241 92.7275C208.637 94.8023 209.835 97.9943 210.874 101.027" fill="#FF725E"/>
<path d="M212.551 101.186C212.072 98.3136 210.474 95.6004 208.158 93.9246C205.842 92.169 202.967 91.4508 200.092 91.2114C195.619 90.8922 190.348 92.0892 187.313 95.361C184.358 98.553 182.441 103.102 182.841 107.092C183 108.927 184.757 113.715 186.115 114.912L211.752 114.274C213.35 111.72 212.95 104.059 212.551 101.186Z" fill="#FF725E"/>
<path d="M212.071 106.533C211.512 99.1914 205.362 93.5256 197.935 93.4458H197.216C189.309 93.9246 185.236 100.867 185.875 108.767L187.312 145.236H205.442L205.282 133.346C205.282 133.346 212.87 132.149 213.029 124.568C213.109 120.977 212.55 113.396 212.071 106.533Z" fill="#FFBE9D"/>
<path d="M205.362 133.425C205.362 133.425 200.49 133.745 195.379 130.473C195.379 130.473 197.695 135.979 205.282 135.261L205.362 133.425Z" fill="#EB996E"/>
<path d="M209.036 112.518C209.036 113.077 208.557 113.555 207.998 113.635C207.439 113.635 206.88 113.236 206.88 112.677C206.88 112.119 207.359 111.64 207.918 111.56C208.557 111.56 209.036 111.959 209.036 112.518Z" fill="#263238"/>
<path d="M210.394 110.283C210.235 110.443 209.436 109.805 208.238 109.805C207.04 109.805 206.241 110.363 206.081 110.283C206.002 110.204 206.161 109.964 206.561 109.725C206.96 109.485 207.519 109.166 208.318 109.166C209.037 109.166 209.675 109.406 209.995 109.725C210.314 109.964 210.474 110.204 210.394 110.283Z" fill="#263238"/>
<path d="M197.856 113.076C197.856 113.635 197.376 114.114 196.817 114.194C196.258 114.194 195.699 113.795 195.699 113.236C195.699 112.677 196.178 112.199 196.737 112.119C197.297 112.039 197.776 112.518 197.856 113.076Z" fill="#263238"/>
<path d="M198.893 110.842C198.734 111.002 197.935 110.363 196.737 110.363C195.539 110.363 194.74 110.922 194.581 110.842C194.501 110.762 194.66 110.523 195.06 110.283C195.459 110.044 196.018 109.725 196.817 109.725C197.536 109.725 198.175 109.964 198.494 110.283C198.813 110.523 198.973 110.762 198.893 110.842Z" fill="#263238"/>
<path d="M203.127 119.141C203.127 119.062 203.846 118.982 205.044 118.822C205.363 118.822 205.603 118.742 205.683 118.503C205.762 118.264 205.603 117.944 205.523 117.625C205.283 116.907 204.964 116.109 204.644 115.311C203.446 112.039 202.568 109.406 202.648 109.326C202.807 109.246 203.846 111.88 205.123 115.072C205.443 115.87 205.683 116.668 206.002 117.386C206.082 117.705 206.321 118.104 206.162 118.583C206.082 118.822 205.842 118.982 205.683 118.982C205.523 119.062 205.283 119.062 205.203 119.062C203.846 119.221 203.127 119.221 203.127 119.141Z" fill="#263238"/>
<path d="M199.692 119.939C199.852 119.939 199.852 121.216 200.97 122.094C202.088 122.972 203.446 122.892 203.446 123.051C203.446 123.131 203.127 123.291 202.567 123.291C202.008 123.291 201.21 123.131 200.491 122.573C199.852 122.014 199.533 121.296 199.533 120.737C199.453 120.258 199.612 119.939 199.692 119.939Z" fill="#263238"/>
<path d="M199.453 108.209C199.373 108.528 198.175 108.368 196.817 108.608C195.46 108.767 194.341 109.166 194.182 108.927C194.102 108.767 194.262 108.528 194.741 108.209C195.22 107.89 195.859 107.57 196.737 107.491C197.536 107.411 198.335 107.491 198.814 107.73C199.293 107.81 199.533 108.049 199.453 108.209Z" fill="#263238"/>
<path d="M210.634 106.852C210.395 107.171 209.436 106.932 208.238 107.092C207.04 107.171 206.082 107.491 205.842 107.251C205.762 107.092 205.842 106.852 206.242 106.533C206.641 106.214 207.36 105.974 208.158 105.895C208.957 105.815 209.676 105.974 210.155 106.214C210.634 106.453 210.794 106.772 210.634 106.852Z" fill="#263238"/>
<path d="M186.993 114.433C186.834 114.353 181.802 112.837 181.882 118.104C182.042 123.291 187.233 122.094 187.233 121.934C187.313 121.775 186.993 114.433 186.993 114.433Z" fill="#FFBE9D"/>
<path d="M186.115 119.939C186.115 119.939 186.035 120.019 185.875 120.099C185.715 120.179 185.476 120.258 185.236 120.099C184.677 119.939 184.198 119.061 184.118 118.104C184.118 117.625 184.198 117.146 184.358 116.827C184.517 116.428 184.757 116.189 184.997 116.109C185.236 116.029 185.476 116.189 185.556 116.348C185.636 116.508 185.636 116.588 185.636 116.588C185.636 116.588 185.715 116.508 185.715 116.268C185.715 116.189 185.636 116.029 185.476 115.949C185.316 115.869 185.156 115.79 184.997 115.869C184.597 115.869 184.278 116.268 184.038 116.667C183.878 117.066 183.719 117.625 183.799 118.104C183.878 119.141 184.438 120.099 185.156 120.338C185.556 120.418 185.795 120.338 185.955 120.179C186.115 120.099 186.115 119.939 186.115 119.939Z" fill="#EB996E"/>
<path d="M190.427 98.9518L192.983 96.7174L201.13 97.9942L206.88 96.478L208.397 98.1538C207.758 99.0316 209.116 95.281 207.838 94.3234C205.043 92.1688 202.647 92.2486 199.133 92.1688C195.619 92.089 188.351 96.3982 185.795 98.872C183.719 100.787 183.719 102.543 183.719 102.543C183.399 105.336 184.996 108.528 185.556 111.321C185.875 112.757 186.514 117.066 186.514 117.066C187.712 117.066 188.191 116.109 187.952 114.912L187.712 110.283C187.712 110.283 191.785 107.411 189.868 102.144C189.629 101.665 188.99 99.7498 190.427 98.9518Z" fill="#263238"/>
<path d="M189.39 100.229C189.869 98.7126 191.466 97.8348 192.984 97.8348C194.501 97.8348 196.019 98.6328 197.137 99.75C197.456 99.9894 197.696 100.309 198.095 100.548C198.415 100.708 198.894 100.787 199.213 100.628C199.293 100.548 199.453 100.468 199.533 100.548C199.613 100.548 199.692 100.628 199.692 100.708C200.012 101.186 200.411 101.585 200.89 101.825C201.37 102.064 202.088 101.984 202.408 101.585C202.967 102.144 203.845 102.224 204.564 101.905C205.283 101.585 205.762 100.867 205.762 100.069C206.401 100.309 207.2 99.9096 207.679 99.351C208.398 98.4732 208.797 97.2762 208.637 96.159C208.478 95.0418 207.759 94.0044 206.721 93.4458C205.922 93.0468 205.043 92.8074 204.245 92.7276C202.887 92.568 201.529 92.4084 200.092 92.4084C199.453 92.4084 198.894 92.4084 198.335 92.6478C197.536 92.967 196.897 93.6054 196.019 93.6852C195.459 93.765 194.98 93.6054 194.421 93.4458C193.702 93.2064 192.904 93.0468 192.105 93.1266C190.588 93.2862 189.31 94.3236 188.351 95.5206C187.633 96.3186 186.994 97.1964 186.754 98.3136C186.514 99.351 186.834 100.628 187.792 101.186C188.192 101.426 188.591 101.506 188.99 101.346C189.39 101.186 189.629 100.708 189.39 100.309" fill="#263238"/>
<path d="M185.795 112.119C185.236 108.129 185.875 103.341 188.83 99.9095C191.705 96.4781 196.897 94.4033 200.251 95.0417C202.887 95.5205 208.637 95.7599 210.714 101.266L210.394 96.7175C210.394 96.7175 207.839 91.5305 200.251 91.6901C192.744 91.8497 189.389 92.7275 185.795 97.1963C182.121 101.665 183.24 105.416 183.719 107.331C184.198 109.246 185.795 112.119 185.795 112.119Z" fill="#FF725E"/>
<path d="M206.561 92.8872C206.561 92.8872 206.481 92.8872 206.321 92.8074C206.162 92.7276 205.922 92.6478 205.523 92.4882C204.804 92.2488 203.845 91.9296 202.568 91.6902C201.29 91.4508 199.772 91.371 198.095 91.4508C196.418 91.5306 194.501 91.8498 192.664 92.4882C190.827 93.2064 189.23 94.164 187.872 95.2812C187.233 95.8398 186.674 96.3984 186.115 96.957C185.875 97.2762 185.636 97.5156 185.396 97.8348C185.236 98.154 184.997 98.3934 184.837 98.7126C184.198 99.8298 183.719 100.787 183.479 101.426C183.32 101.745 183.24 102.064 183.16 102.224C183.08 102.383 183.08 102.463 183.08 102.463C183.08 102.463 183.08 102.383 183.16 102.144C183.24 101.984 183.32 101.665 183.4 101.346C183.639 100.628 184.038 99.6702 184.677 98.553C184.837 98.2338 184.997 97.9944 185.236 97.6752C185.476 97.356 185.636 97.1166 185.875 96.7974C186.355 96.2388 186.914 95.6004 187.632 95.0418C188.99 93.9246 190.588 92.967 192.424 92.2488C194.261 91.5306 196.178 91.2912 197.855 91.2114C199.533 91.1316 201.13 91.2912 202.408 91.5306C203.686 91.77 204.724 92.0892 205.363 92.3286C205.682 92.4882 205.922 92.568 206.162 92.6478C206.481 92.8074 206.561 92.8074 206.561 92.8872Z" fill="#263238"/>
<path d="M186.275 105.416C186.275 105.416 186.195 105.416 186.035 105.336C185.875 105.256 185.716 105.097 185.476 104.937C184.997 104.538 184.518 103.9 184.198 103.022C183.879 102.144 183.879 101.346 183.958 100.708C184.038 100.388 184.038 100.149 184.118 99.9894C184.198 99.8298 184.198 99.75 184.198 99.75C184.198 99.75 184.118 100.069 184.038 100.708C183.958 101.266 184.038 102.064 184.358 102.942C184.677 103.74 185.156 104.378 185.556 104.777C185.955 105.176 186.275 105.416 186.275 105.416Z" fill="#263238"/>
<path d="M188.511 100.867C188.511 100.867 188.191 100.707 187.872 100.388C187.472 100.069 187.073 99.4307 186.833 98.7125C186.594 97.9943 186.594 97.2761 186.674 96.7973C186.754 96.3185 186.913 95.9993 186.913 95.9993C186.913 95.9993 186.833 96.3185 186.754 96.7973C186.674 97.2761 186.674 97.9943 186.913 98.6327C187.153 99.3509 187.552 99.9095 187.872 100.229C188.271 100.628 188.511 100.867 188.511 100.867Z" fill="#263238"/>
<path d="M192.025 97.5154C192.025 97.5154 191.785 97.4356 191.466 97.1164C191.146 96.877 190.747 96.3982 190.428 95.8396C190.108 95.281 190.028 94.7224 190.028 94.2436C190.028 93.8446 190.028 93.6052 190.108 93.6052C190.188 93.6052 190.028 94.6426 190.667 95.7598C191.226 96.877 192.105 97.5154 192.025 97.5154Z" fill="#263238"/>
<path d="M195.459 91.6104C195.459 91.6104 195.619 91.77 195.778 92.0892C195.938 92.4084 196.178 92.8871 196.337 93.4457C196.497 94.0043 196.497 94.4832 196.577 94.8822C196.577 95.2812 196.577 95.4407 196.497 95.4407C196.417 95.4407 196.417 94.5629 196.178 93.4457C195.858 92.4881 195.459 91.6902 195.459 91.6104Z" fill="#263238"/>
<path d="M202.088 91.5305C202.088 91.5305 202.248 91.6901 202.328 92.0891C202.488 92.4083 202.568 92.9669 202.488 93.5255C202.488 94.0841 202.328 94.5629 202.168 94.9619C202.009 95.2811 201.849 95.4407 201.849 95.4407C201.769 95.4407 202.248 94.6427 202.328 93.5255C202.488 92.4083 202.088 91.5305 202.088 91.5305Z" fill="#263238"/>
<path d="M206.4 92.7275C206.4 92.7275 206.56 92.8871 206.72 93.2861C206.88 93.6851 207.039 94.1639 207.039 94.8023C207.039 95.4407 206.959 95.9993 206.8 96.3185C206.64 96.7175 206.48 96.8771 206.48 96.8771C206.4 96.8771 206.959 95.9993 206.88 94.8023C206.88 93.6053 206.321 92.7275 206.4 92.7275Z" fill="#263238"/>
<path d="M210.474 96.3186C210.474 96.3186 210.553 96.4782 210.553 96.7974C210.553 97.1166 210.553 97.5954 210.394 98.0742C210.234 98.553 209.994 98.952 209.755 99.1914C209.515 99.4308 209.355 99.5106 209.355 99.5106C209.276 99.5106 209.915 98.952 210.234 97.9944C210.553 97.1166 210.394 96.3186 210.474 96.3186Z" fill="#263238"/>
<path d="M212.55 100.787C212.63 100.787 212.55 101.426 212.151 101.984C211.751 102.623 211.192 102.862 211.192 102.862C211.192 102.782 211.592 102.463 211.991 101.905C212.39 101.346 212.47 100.708 212.55 100.787Z" fill="#263238"/>
<path d="M212.79 105.735C212.87 105.735 212.79 106.054 212.55 106.293C212.311 106.533 211.991 106.533 211.991 106.533C211.991 106.453 212.231 106.373 212.47 106.214C212.63 105.974 212.79 105.735 212.79 105.735Z" fill="#263238"/>
<path d="M185.715 109.884C185.715 109.964 184.916 109.805 184.038 109.246C183.239 108.687 182.84 107.969 182.84 107.969C182.92 107.969 183.319 108.608 184.118 109.166C184.996 109.645 185.715 109.884 185.715 109.884Z" fill="#263238"/>
<path d="M186.195 112.438C186.195 112.438 185.955 112.757 185.476 112.757C184.997 112.757 184.677 112.598 184.757 112.518C184.757 112.438 185.077 112.598 185.476 112.598C185.796 112.518 186.115 112.358 186.195 112.438Z" fill="#263238"/>
<g opacity="0.3">
<path d="M205.921 92.6478C202.647 90.4932 198.494 89.6952 194.74 90.573C190.906 91.4508 187.472 94.164 185.476 97.5156C185.476 97.5156 190.188 91.5306 196.897 91.371C203.685 91.2114 205.921 92.6478 205.921 92.6478Z" fill="black"/>
</g>
<path d="M200.73 112.677C200.73 112.677 200.73 112.358 200.57 111.72C200.41 111.161 200.011 110.283 199.132 109.645C198.733 109.326 198.174 109.086 197.535 108.927C196.896 108.847 196.177 108.847 195.538 109.086C195.219 109.166 194.9 109.406 194.58 109.565C194.261 109.805 194.021 110.044 193.781 110.363C193.302 111.002 193.063 111.8 193.063 112.598C193.063 113.396 193.302 114.194 193.781 114.832C194.021 115.151 194.261 115.391 194.58 115.63C194.9 115.869 195.219 116.029 195.538 116.109C196.177 116.348 196.896 116.348 197.535 116.268C198.174 116.189 198.733 115.869 199.132 115.55C200.011 114.912 200.41 114.034 200.57 113.475C200.73 113.076 200.73 112.677 200.73 112.677C200.73 112.677 200.81 112.997 200.65 113.635C200.49 114.194 200.171 115.151 199.212 115.79C198.733 116.109 198.174 116.428 197.535 116.508C196.896 116.588 196.177 116.588 195.459 116.348C195.139 116.189 194.74 116.029 194.42 115.79C194.101 115.55 193.781 115.311 193.542 114.912C193.063 114.273 192.743 113.396 192.743 112.598C192.743 111.72 193.063 110.922 193.542 110.283C193.781 109.964 194.101 109.645 194.42 109.406C194.74 109.166 195.059 109.007 195.459 108.847C196.177 108.608 196.896 108.608 197.535 108.687C198.174 108.847 198.733 109.086 199.212 109.406C200.091 110.124 200.49 111.002 200.65 111.56C200.81 112.358 200.73 112.677 200.73 112.677Z" fill="#455A64"/>
<path d="M212.311 112.278C212.311 112.278 212.311 111.959 212.151 111.321C211.991 110.762 211.592 109.884 210.714 109.246C210.314 108.927 209.755 108.687 209.116 108.528C208.477 108.448 207.758 108.448 207.12 108.687C206.8 108.767 206.481 109.007 206.161 109.166C205.842 109.406 205.602 109.645 205.362 109.964C204.883 110.603 204.644 111.401 204.644 112.199C204.644 112.997 204.883 113.795 205.362 114.433C205.602 114.752 205.842 114.992 206.161 115.231C206.481 115.47 206.8 115.63 207.12 115.71C207.758 115.949 208.477 115.949 209.116 115.869C209.755 115.79 210.314 115.47 210.714 115.151C211.592 114.513 211.991 113.635 212.151 113.076C212.311 112.598 212.311 112.278 212.311 112.278C212.311 112.278 212.391 112.598 212.231 113.236C212.071 113.795 211.752 114.752 210.793 115.391C210.314 115.71 209.755 116.029 209.116 116.109C208.477 116.189 207.759 116.189 207.04 115.949C206.72 115.79 206.321 115.63 206.001 115.391C205.682 115.151 205.362 114.912 205.123 114.513C204.644 113.874 204.324 112.997 204.324 112.199C204.324 111.321 204.644 110.523 205.123 109.884C205.362 109.565 205.682 109.246 206.001 109.007C206.321 108.767 206.64 108.608 207.04 108.448C207.759 108.209 208.477 108.209 209.116 108.288C209.755 108.448 210.314 108.687 210.793 109.007C211.672 109.725 212.071 110.603 212.231 111.161C212.391 111.879 212.311 112.278 212.311 112.278Z" fill="#455A64"/>
<path d="M204.723 110.762C204.723 110.762 204.483 110.603 204.084 110.443C203.685 110.283 203.126 110.044 202.487 110.124C201.848 110.124 201.289 110.443 200.969 110.603C200.57 110.842 200.41 111.002 200.41 111.002C200.41 111.002 200.57 110.762 200.889 110.523C201.209 110.283 201.848 109.964 202.487 109.964C203.205 109.884 203.765 110.124 204.164 110.363C204.563 110.523 204.723 110.762 204.723 110.762Z" fill="#455A64"/>
<path d="M193.223 111.959C193.223 112.039 191.705 112.518 189.708 113.156C187.792 113.795 186.194 114.194 186.194 114.194C186.194 114.114 187.712 113.635 189.708 112.997C191.625 112.358 193.223 111.959 193.223 111.959Z" fill="#455A64"/>
<path d="M196.737 115.949C196.737 115.949 196.497 115.949 196.098 115.869C195.698 115.79 195.139 115.47 194.66 115.071C194.181 114.593 193.861 114.114 193.702 113.715C193.542 113.316 193.542 113.076 193.542 113.076C193.542 113.076 193.622 113.316 193.782 113.715C193.941 114.114 194.261 114.593 194.74 114.992C195.219 115.391 195.698 115.71 196.098 115.79C196.497 115.869 196.737 115.869 196.737 115.949Z" fill="white"/>
<path d="M206.241 114.672C206.241 114.672 206.002 114.593 205.682 114.353C205.443 114.034 205.123 113.555 205.043 112.997C204.963 112.438 204.963 111.879 205.043 111.48C205.123 111.081 205.283 110.922 205.283 110.922C205.283 110.922 205.203 111.161 205.123 111.48C205.043 111.879 205.043 112.358 205.123 112.917C205.203 113.475 205.443 113.954 205.682 114.194C206.002 114.513 206.241 114.593 206.241 114.672Z" fill="white"/>
<path d="M200.57 120.179C200.57 120.179 200.65 119.939 200.89 119.7C201.129 119.46 201.289 119.301 201.369 119.381C201.369 119.381 201.289 119.62 201.05 119.859C200.81 120.099 200.65 120.258 200.57 120.179Z" fill="#263238"/>
<path d="M201.129 120.578C201.129 120.578 201.209 120.338 201.448 120.019C201.688 119.78 201.848 119.54 201.928 119.54C201.928 119.54 201.848 119.78 201.608 120.099C201.448 120.338 201.209 120.578 201.129 120.578Z" fill="#263238"/>
<path d="M201.768 120.977C201.688 120.977 201.848 120.657 202.008 120.418C202.168 120.099 202.327 119.939 202.407 119.939C202.487 119.939 202.327 120.258 202.168 120.498C201.928 120.737 201.768 120.977 201.768 120.977Z" fill="#263238"/>
<path d="M202.647 120.977C202.567 120.977 202.567 120.817 202.567 120.578C202.567 120.338 202.647 120.179 202.727 120.179C202.807 120.179 202.807 120.338 202.807 120.578C202.727 120.817 202.647 120.977 202.647 120.977Z" fill="#263238"/>
<path d="M203.445 121.136C203.365 121.136 203.365 120.977 203.365 120.817C203.365 120.657 203.445 120.498 203.445 120.498C203.525 120.498 203.525 120.657 203.525 120.817C203.525 120.977 203.525 121.136 203.445 121.136Z" fill="#263238"/>
<path d="M204.244 121.216C204.164 121.216 204.084 121.056 204.084 120.737C204.004 120.498 204.004 120.258 204.084 120.258C204.164 120.258 204.244 120.418 204.244 120.737C204.244 120.977 204.244 121.136 204.244 121.216Z" fill="#263238"/>
<path d="M186.194 122.094C186.194 122.094 186.274 122.493 185.955 122.972C185.795 123.211 185.555 123.53 185.076 123.53C184.677 123.61 184.198 123.451 183.958 123.052C183.718 122.653 183.639 122.254 183.718 121.855C183.798 121.456 184.038 121.216 184.278 121.057C184.757 120.737 185.156 120.817 185.156 120.817C185.156 120.817 184.757 120.817 184.357 121.136C184.118 121.296 183.958 121.535 183.878 121.934C183.798 122.254 183.878 122.653 184.118 122.972C184.357 123.291 184.757 123.451 185.076 123.371C185.396 123.371 185.715 123.131 185.795 122.892C186.194 122.493 186.194 122.094 186.194 122.094Z" fill="#263238"/>
<path d="M175.491 239.4C176.45 239.4 216.383 280.896 216.383 283.769C216.383 286.642 222.293 315.848 225.168 320.397C228.043 324.866 229.721 323.828 229.721 323.828L242.978 317.684C242.978 317.684 235.631 272.198 234.033 267.091C232.436 261.983 202.007 221.764 202.007 221.764L173.255 227.27L175.491 239.4Z" fill="#263238"/>
<path d="M160.716 218.652L152.41 269.804C152.41 269.804 126.453 295.739 124.856 298.611C124.856 298.611 121.981 297.654 121.022 300.207C120.064 302.761 119.186 307.549 119.186 307.549L132.044 318.322C132.044 318.322 166.067 290.153 169.262 285.923C172.457 281.774 185.954 254.163 188.51 247.061C191.066 239.958 194.1 224.318 194.1 224.318L160.716 218.652Z" fill="#263238"/>
<path d="M223.013 274.512C223.092 274.512 222.853 275.15 222.453 276.108C222.054 277.066 221.335 278.342 220.377 279.699C219.419 281.056 218.46 282.093 217.661 282.811C216.863 283.529 216.304 283.849 216.304 283.849C216.304 283.769 216.783 283.37 217.502 282.652C218.221 281.933 219.179 280.816 220.057 279.539C221.894 276.826 222.933 274.432 223.013 274.512Z" fill="#455A64"/>
<path d="M157.123 273.315C157.123 273.395 155.685 273.235 154.407 272.118C153.049 271.08 152.57 269.724 152.65 269.724C152.73 269.644 153.369 270.841 154.647 271.799C155.845 272.836 157.123 273.235 157.123 273.315Z" fill="#455A64"/>
<path d="M130.287 305.315C130.287 305.395 128.45 304.517 127.013 302.522C125.575 300.527 125.256 298.532 125.415 298.532C125.575 298.532 125.974 300.367 127.412 302.282C128.77 304.198 130.367 305.235 130.287 305.315Z" fill="#455A64"/>
<path d="M171.418 226.233C171.418 226.233 171.418 226.472 171.258 226.791C171.099 227.19 170.939 227.669 170.62 228.308C169.981 229.505 168.862 231.101 167.345 232.537C165.828 233.973 164.15 234.931 162.872 235.49C162.234 235.809 161.754 235.968 161.355 236.048C160.956 236.128 160.796 236.208 160.796 236.208C160.796 236.128 161.595 235.889 162.793 235.25C163.991 234.612 165.588 233.654 167.105 232.218C168.623 230.781 169.741 229.265 170.38 228.148C171.019 226.951 171.338 226.153 171.418 226.233Z" fill="#455A64"/>
<path d="M191.784 239.32C191.784 239.32 191.624 239.799 191.305 240.597C190.986 241.475 190.506 242.672 189.947 244.108C188.749 247.061 187.072 251.131 185.155 255.52C183.159 259.988 181.242 263.899 179.804 266.771C179.085 268.128 178.526 269.245 178.127 270.123C177.728 270.921 177.488 271.32 177.408 271.32C177.408 271.32 177.568 270.841 177.967 270.043C178.367 269.165 178.926 268.048 179.565 266.612C180.922 263.739 182.839 259.749 184.836 255.36C186.832 250.971 188.51 246.901 189.788 243.949C190.426 242.512 190.906 241.395 191.305 240.517C191.545 239.719 191.704 239.24 191.784 239.32Z" fill="#455A64"/>
<path d="M184.756 135.58C184.756 135.58 175.971 139.091 173.895 145.316C172.856 148.428 166.786 171.251 166.786 171.251C166.786 171.251 158.8 215.061 159.918 219.21L205.602 226.233C206.72 224.876 207.279 223.121 207.199 221.365L206.48 208.198L207.039 151.939C207.039 151.54 207.039 151.061 206.959 150.662L205.362 140.288L205.841 135.819L185.315 130.393L184.756 135.58Z" fill="#FF725E"/>
<path d="M183.558 132.069C183.798 130.553 185.235 129.675 186.673 129.994L205.442 134.942C206.64 135.261 207.358 136.298 207.358 137.495L207.279 138.293C207.199 139.969 205.601 141.086 204.004 140.528L185.315 134.782C184.117 134.463 183.319 133.266 183.558 132.069Z" fill="#FF725E"/>
<path d="M205.681 140.368C205.681 140.368 205.362 140.288 204.723 140.209C204.004 140.049 203.125 139.81 202.087 139.57C199.931 139.012 196.896 138.214 193.541 137.256C191.944 136.777 190.506 136.378 189.069 135.979C188.51 135.899 187.951 135.74 187.392 135.58C187.152 135.5 186.912 135.421 186.673 135.261C186.593 135.181 186.433 135.101 186.353 135.022C186.273 134.942 186.194 134.782 186.114 134.702C185.874 134.224 185.874 133.745 185.954 133.266C186.034 132.867 186.114 132.468 186.273 132.149C186.513 131.51 186.912 131.032 187.152 130.712C187.392 130.393 187.631 130.313 187.631 130.313C187.711 130.313 186.992 130.872 186.513 132.149C186.273 132.787 186.114 133.665 186.433 134.463C186.593 134.862 187.072 135.022 187.551 135.181C188.031 135.341 188.59 135.421 189.149 135.5C190.506 135.899 192.024 136.298 193.621 136.697C196.976 137.655 199.931 138.453 202.167 139.091C203.205 139.411 204.084 139.65 204.723 139.889C205.362 140.209 205.681 140.368 205.681 140.368Z" fill="#263238"/>
<path d="M205.842 143.56C205.842 143.56 205.921 143.72 205.921 143.959C205.921 144.279 206.001 144.678 206.081 145.156C206.161 146.194 206.321 147.71 206.481 149.545C206.8 153.296 207.04 158.403 207.199 164.069C207.359 169.735 207.359 174.922 207.199 178.593C207.119 180.428 207.04 181.944 206.96 182.982C206.96 183.46 206.88 183.859 206.88 184.179C206.88 184.418 206.8 184.578 206.8 184.578C206.8 184.578 206.8 184.418 206.8 184.179C206.8 183.859 206.8 183.46 206.8 182.982C206.8 181.944 206.88 180.428 206.88 178.593C206.96 174.842 206.88 169.735 206.72 164.069C206.56 158.403 206.321 153.216 206.081 149.545C206.001 147.71 205.921 146.274 205.842 145.156C205.842 144.678 205.762 144.279 205.762 143.959C205.842 143.72 205.842 143.56 205.842 143.56Z" fill="#263238"/>
<path d="M192.584 131.829C192.664 131.909 192.025 132.787 191.865 134.144C191.625 135.5 192.025 136.538 191.865 136.538C191.785 136.617 191.226 135.5 191.466 134.064C191.625 132.627 192.504 131.75 192.584 131.829Z" fill="#263238"/>
<path d="M197.854 133.027C197.934 133.027 198.094 133.266 198.253 133.745C198.413 134.224 198.493 134.942 198.333 135.66C198.174 136.378 197.854 137.017 197.535 137.416C197.215 137.815 196.976 137.974 196.896 137.894C196.816 137.815 197.694 137.017 197.934 135.58C198.253 134.224 197.774 133.106 197.854 133.027Z" fill="#263238"/>
<path d="M203.046 134.463C203.126 134.463 203.286 134.622 203.525 135.101C203.685 135.58 203.845 136.218 203.765 137.016C203.605 137.735 203.286 138.373 202.966 138.772C202.647 139.171 202.327 139.251 202.327 139.251C202.248 139.171 203.126 138.373 203.366 137.016C203.605 135.58 202.966 134.543 203.046 134.463Z" fill="#263238"/>
<path d="M200.411 147.151C198.654 142.044 194.501 137.655 189.23 136.538C183.958 135.421 179.007 136.618 175.253 141.007L170.461 151.141C172.617 149.944 175.972 143.081 179.965 140.687C183.958 138.373 188.351 138.293 191.626 141.565C194.022 143.959 195.858 147.47 195.779 150.822C195.699 157.525 192.903 163.75 190.827 170.134C188.191 178.353 186.195 187.051 180.125 193.196C175.253 198.143 168.864 201.096 162.554 203.889C161.037 205.086 157.602 209.555 159.439 210.273C161.196 210.991 167.666 208.677 169.502 208.118C174.055 206.762 178.767 205.246 182.281 201.974C185.476 198.941 187.233 194.712 188.91 190.562C192.105 182.662 194.181 174.363 197.376 166.463C200.012 159.919 202.727 154.014 200.411 147.151Z" fill="#455A64"/>
<path d="M193.062 232.378L189.389 226.233L177.169 230.462C177.169 230.462 177.968 241.315 179.565 241.634C181.162 241.953 182.28 240.916 182.28 240.916C182.28 240.916 183.159 243.709 184.996 243.869C185.555 243.869 185.874 243.949 186.034 243.949C186.354 244.188 188.191 245.545 189.708 245.066C189.708 245.066 191.146 248.098 192.264 247.779C193.382 247.46 194.101 243.789 194.101 243.789L193.062 232.378Z" fill="#FFBE9D"/>
<path d="M182.04 139.331C177.728 140.847 174.613 144.518 173.734 148.747C171.338 160.238 165.588 190.243 165.828 194.473C166.147 199.819 176.37 231.739 176.37 231.739L190.746 227.43L184.197 191.52C184.197 191.52 194.34 157.924 195.139 152.817C196.177 147.231 191.305 136.139 182.04 139.331Z" fill="#FF725E"/>
<path d="M182.041 139.331C182.041 139.331 182.44 139.171 183.159 138.932C183.878 138.772 185.076 138.533 186.593 138.772C188.111 139.012 189.868 139.81 191.385 141.406C192.903 143.002 194.181 145.156 194.899 147.869C195.299 149.226 195.538 150.662 195.538 152.179C195.538 152.977 195.379 153.695 195.219 154.493C195.059 155.291 194.82 156.089 194.66 156.887C193.861 160.079 192.903 163.51 191.785 167.181C189.708 174.523 187.232 182.662 184.517 191.52V191.44C186.513 202.453 188.75 214.582 191.066 227.35V227.51L190.906 227.59C188.75 228.228 186.513 228.946 184.197 229.585C181.562 230.383 179.006 231.181 176.53 231.899L176.37 231.979L176.29 231.819C174.134 225.275 172.137 218.891 170.3 212.747C169.342 209.635 168.464 206.602 167.665 203.65C167.266 202.133 166.866 200.697 166.547 199.181C166.387 198.463 166.227 197.744 166.068 196.946C165.908 196.228 165.828 195.43 165.748 194.712C165.748 193.196 165.988 191.759 166.147 190.323C166.307 188.887 166.547 187.53 166.786 186.094C167.186 183.38 167.665 180.667 168.144 178.114C169.102 173.006 169.981 168.218 170.78 163.909C171.658 159.6 172.377 155.69 173.096 152.258C173.495 150.583 173.655 148.907 174.214 147.47C174.693 146.034 175.412 144.837 176.131 143.8C177.568 141.805 179.246 140.687 180.364 140.049C181.402 139.49 182.041 139.331 182.041 139.331C182.041 139.331 181.881 139.411 181.562 139.57C181.242 139.73 180.843 139.889 180.284 140.209C179.166 140.847 177.568 141.964 176.131 143.959C175.412 144.917 174.773 146.194 174.294 147.55C173.815 148.987 173.575 150.583 173.256 152.258C172.617 155.69 171.818 159.6 171.019 163.909C170.221 168.218 169.342 173.006 168.384 178.114C167.904 180.667 167.505 183.38 167.026 186.094C166.786 187.45 166.627 188.887 166.387 190.323C166.227 191.759 165.988 193.196 165.988 194.632C166.068 195.35 166.147 196.069 166.307 196.787C166.467 197.505 166.627 198.223 166.786 198.941C167.106 200.378 167.505 201.894 167.904 203.41C168.703 206.363 169.582 209.395 170.54 212.507C172.377 218.652 174.374 225.036 176.53 231.58L176.29 231.42C178.766 230.702 181.322 229.904 183.958 229.106C186.274 228.388 188.59 227.749 190.666 227.111L190.507 227.35C188.191 214.582 186.034 202.453 184.038 191.44V191.36V191.281C186.753 182.423 189.229 174.283 191.385 166.942C192.424 163.271 193.462 159.839 194.26 156.647C194.66 155.051 195.139 153.535 195.139 152.019C195.139 150.503 194.899 149.066 194.58 147.79C193.861 145.156 192.583 142.922 191.146 141.406C189.708 139.81 187.951 139.012 186.513 138.772C185.076 138.533 183.878 138.692 183.159 138.852C182.76 138.932 182.52 139.012 182.28 139.091C182.201 139.331 182.041 139.331 182.041 139.331Z" fill="#263238"/>
<path d="M184.516 191.281C184.437 191.36 182.999 190.084 180.763 189.365C178.606 188.647 176.689 188.727 176.689 188.647C176.689 188.567 178.606 188.168 180.922 188.966C183.239 189.764 184.596 191.281 184.516 191.281Z" fill="#263238"/>
<g opacity="0.3">
<path d="M173.016 221.684C166.307 211.789 162.793 197.904 166.626 188.009C165.588 193.914 166.547 199.34 168.304 205.086C170.061 210.832 172.217 216.577 172.537 222.562" fill="black"/>
</g>
<path d="M152.41 363.09L132.523 342.183L116.231 343.06L104.73 347.609L97.4619 363.09" fill="#F5F5F5"/>
<path d="M116.23 343.06L133.082 363.09H152.41L132.523 342.183L116.23 343.06Z" fill="#E0E0E0"/>
<path d="M97.4619 363.09C97.4619 363.09 97.4619 363.01 97.5418 362.771C97.6217 362.532 97.7814 362.292 97.9411 361.973C98.2606 361.175 98.7398 360.138 99.3787 358.861C100.657 356.148 102.414 352.237 104.65 347.609V347.529H104.73C108.164 346.173 112.078 344.577 116.231 342.981C118.706 342.821 121.342 342.661 124.058 342.502C127.013 342.342 129.808 342.183 132.523 342.023H132.603L132.683 342.103C138.354 348.088 143.305 353.355 146.82 357.105C148.577 358.941 149.934 360.457 150.893 361.494C151.372 361.973 151.691 362.372 152.011 362.691C151.691 362.372 151.372 362.053 150.893 361.574C149.854 360.537 148.497 359.1 146.66 357.265C143.066 353.514 138.114 348.327 132.444 342.342L132.603 342.422C129.888 342.582 127.092 342.741 124.137 342.901C121.422 343.06 118.866 343.22 116.31 343.3H116.39C112.237 344.976 108.324 346.492 104.89 347.848L104.969 347.769C102.733 352.397 100.896 356.227 99.6183 358.941C98.9794 360.217 98.5002 361.335 98.1008 362.053C97.9411 362.372 97.7814 362.691 97.7015 362.851C97.5418 363.01 97.4619 363.09 97.4619 363.09Z" fill="#263238"/>
<path d="M7.85156 363.09L15.4389 349.923L29.176 346.093L42.1144 357.025V363.09" fill="#EBEBEB"/>
<path d="M15.4385 349.923L42.1139 357.025L29.1755 346.093L15.4385 349.923Z" fill="#E0E0E0"/>
<path d="M42.1146 363.09C42.1146 363.09 42.1146 362.931 42.1146 362.691C42.1146 362.372 42.1146 361.973 42.1146 361.494C42.1146 360.377 42.1146 358.941 42.0347 357.105L42.1146 357.185C38.9199 354.472 34.3675 350.641 29.1762 346.252L29.3359 346.332C28.2976 346.651 27.2594 346.891 26.2211 347.21C22.3875 348.247 18.7935 349.285 15.519 350.162L15.5988 350.083C13.3626 353.913 11.4458 357.185 10.0881 359.499C9.44912 360.616 8.89005 361.494 8.49072 362.132C8.33098 362.452 8.17125 362.611 8.09138 362.851C8.01152 363.01 7.93164 363.09 7.93164 363.09C7.93164 363.09 7.93165 363.01 8.01151 362.851C8.09138 362.691 8.25111 362.452 8.41085 362.132C8.81018 361.494 9.28937 360.536 9.92831 359.419C11.286 357.025 13.123 353.754 15.3592 349.923V349.843H15.4391C18.6338 348.966 22.3077 347.928 26.0614 346.811C27.0996 346.492 28.2178 346.252 29.1762 345.933H29.2561L29.3359 346.013C34.5272 350.402 39.0796 354.312 42.1944 357.025L42.2743 357.105V357.185C42.2743 359.02 42.1944 360.537 42.1944 361.574C42.1944 362.053 42.1944 362.452 42.1944 362.771C42.1944 362.931 42.1146 363.09 42.1146 363.09Z" fill="#263238"/>
<path d="M282.034 339.469L262.866 328.537L229.162 340.826L202.008 363.09L298.167 362.611L282.034 339.469Z" fill="#F5F5F5"/>
<path d="M202.008 363.09L236.51 343.06L282.034 339.469L262.068 327.659L229.162 340.826L202.008 363.09Z" fill="#E0E0E0"/>
<path d="M251.525 362.851L268.777 351.04L284.51 349.923L271.332 352.796L264.544 362.771L251.525 362.851Z" fill="#E0E0E0"/>
<path d="M202.008 363.09C202.008 363.09 202.008 363.01 202.088 363.01C202.168 362.93 202.327 362.851 202.487 362.691C202.806 362.372 203.286 361.973 203.925 361.494C205.202 360.377 207.119 358.861 209.435 356.866C214.227 352.955 221.016 347.369 229.003 340.746C236.191 337.793 244.417 334.522 252.963 331.01C255.998 329.813 258.953 328.616 261.828 327.419H261.908L261.988 327.499C269.256 331.888 276.044 335.958 281.954 339.469C286.826 346.412 290.82 352.237 293.615 356.307C294.973 358.302 296.091 359.898 296.889 361.015C297.209 361.574 297.528 361.973 297.768 362.292C297.928 362.611 298.008 362.691 298.008 362.691C298.008 362.691 297.928 362.531 297.688 362.292C297.449 361.973 297.209 361.574 296.81 361.095C296.011 359.978 294.893 358.462 293.535 356.467C290.66 352.397 286.587 346.651 281.715 339.709L281.795 339.788C275.884 336.277 269.096 332.207 261.828 327.818H261.988C259.112 329.015 256.157 330.212 253.122 331.409C244.497 334.921 236.35 338.192 229.083 341.145H229.162C221.096 347.689 214.307 353.275 209.515 357.185C207.119 359.1 205.202 360.616 203.925 361.733C203.286 362.212 202.806 362.611 202.407 362.93C202.247 363.09 202.088 363.17 202.008 363.25C202.008 363.01 202.008 363.09 202.008 363.09Z" fill="#263238"/>
<path d="M284.989 349.843C284.989 349.843 284.59 349.923 283.711 350.003C282.833 350.083 281.715 350.162 280.277 350.322C277.322 350.561 273.249 350.881 268.697 351.2H268.776C268.137 351.599 267.499 352.078 266.86 352.477C262.627 355.349 258.793 357.983 255.998 359.818C254.64 360.696 253.522 361.494 252.643 362.053C252.244 362.292 252.004 362.452 251.765 362.611C251.525 362.771 251.445 362.771 251.445 362.771C251.445 362.771 251.525 362.691 251.765 362.531C252.004 362.372 252.324 362.132 252.643 361.893C253.442 361.334 254.56 360.536 255.918 359.579C258.633 357.664 262.467 355.03 266.7 352.078C267.339 351.599 267.978 351.2 268.617 350.801H268.697H268.776C273.329 350.482 277.402 350.242 280.357 350.083C281.795 350.003 282.913 349.923 283.791 349.923C284.59 349.843 284.989 349.843 284.989 349.843Z" fill="#263238"/>
<path d="M372.603 351.599L361.102 347.05L341.934 350.561L332.59 363.01L378.194 363.09L372.603 351.599Z" fill="#F5F5F5"/>
<path d="M341.935 350.561C342.494 350.482 372.683 351.599 372.683 351.599L361.182 347.05L341.935 350.561Z" fill="#E0E0E0"/>
<path d="M332.59 363.01C332.59 363.01 332.67 362.93 332.75 362.771C332.909 362.611 333.069 362.372 333.229 362.053C333.708 361.414 334.267 360.536 335.066 359.499C336.743 357.265 338.979 354.152 341.775 350.402L341.854 350.322H341.934C346.087 349.524 351.039 348.646 356.23 347.689C357.908 347.369 359.505 347.05 361.102 346.811H361.182H361.262C365.495 348.487 369.408 350.083 372.763 351.359H372.843V351.439C374.52 354.871 375.878 357.743 376.836 359.818C377.315 360.776 377.635 361.574 377.874 362.132C377.954 362.372 378.034 362.611 378.114 362.771C378.194 362.93 378.194 363.01 378.194 363.01C378.194 363.01 378.114 362.93 378.034 362.851C377.954 362.691 377.874 362.531 377.715 362.292C377.395 361.733 377.076 360.935 376.517 359.978C375.478 357.983 374.12 355.11 372.443 351.679L372.523 351.758C369.169 350.482 365.255 348.886 361.022 347.21H361.102C359.505 347.529 357.908 347.768 356.23 348.088C351.039 349.045 346.167 349.923 341.934 350.641L342.014 350.561C339.219 354.232 336.903 357.344 335.225 359.579C334.427 360.616 333.788 361.494 333.309 362.053C333.069 362.292 332.909 362.531 332.75 362.691C332.67 362.93 332.59 363.01 332.59 363.01Z" fill="#263238"/>
<path d="M458.139 363.09C458.139 363.17 338.339 363.329 190.506 363.329C42.673 363.329 -77.127 363.25 -77.127 363.09C-77.127 363.01 42.673 362.851 190.506 362.851C338.339 362.851 458.139 362.93 458.139 363.09Z" fill="#263238"/>
<path d="M129.488 369.394C129.488 369.474 112.317 369.634 91.1524 369.634C69.9877 369.634 52.8164 369.554 52.8164 369.394C52.8164 369.314 69.9877 369.155 91.1524 369.155C112.317 369.235 129.488 369.314 129.488 369.394Z" fill="#263238"/>
<path d="M101.056 374.422C101.056 374.501 95.6249 374.661 88.9161 374.661C82.2073 374.661 76.7764 374.581 76.7764 374.422C76.7764 374.342 82.2073 374.182 88.9161 374.182C95.6249 374.182 101.056 374.262 101.056 374.422Z" fill="#263238"/>
</svg>
