<svg width="24" height="24" viewBox="0 0 24 24" fill="none" xmlns="http://www.w3.org/2000/svg">
<path fill-rule="evenodd" clip-rule="evenodd" d="M12 7.333C12 8.62148 10.9555 9.666 9.66698 9.666C8.3785 9.666 7.33398 8.62148 7.33398 7.333C7.33398 6.04452 8.3785 5 9.66698 5C10.9555 5 12 6.04452 12 7.333Z" stroke="#FF725E" stroke-width="2" stroke-linecap="round" stroke-linejoin="round"/>
<path fill-rule="evenodd" clip-rule="evenodd" d="M14.333 15.733C14.333 17.533 12.244 19 9.666 19C7.088 19 5 17.537 5 15.733C5 13.929 7.089 12.467 9.667 12.467C12.245 12.467 14.333 13.929 14.333 15.733Z" stroke="#FF725E" stroke-width="2" stroke-linecap="round" stroke-linejoin="round"/>
<path fill-rule="evenodd" clip-rule="evenodd" d="M16.9392 9.51102C16.9392 10.2842 16.3124 10.911 15.5392 10.911C14.766 10.911 14.1392 10.2842 14.1392 9.51102C14.1392 8.73782 14.766 8.11102 15.5392 8.11102C15.9105 8.11102 16.2666 8.25852 16.5291 8.52107C16.7917 8.78362 16.9392 9.13972 16.9392 9.51102Z" stroke="#FF725E" stroke-width="2" stroke-linecap="round" stroke-linejoin="round"/>
<path d="M16.2002 18.067C17.614 18.1831 18.8598 17.1445 19.0002 15.733C18.8593 14.3218 17.6136 13.2839 16.2002 13.4" stroke="#FF725E" stroke-width="2" stroke-linecap="round" stroke-linejoin="round"/>
</svg>
