<svg width="28" height="32" viewBox="0 0 28 32" fill="none" xmlns="http://www.w3.org/2000/svg">
<path d="M4.35701 20.1667L10.1988 26.6902M24.4995 2.01626C22.1067 1.99176 20.9988 3.22056 20.6355 4.46239C20.3155 5.55591 20.6079 7.79559 19.8441 9.45451C19.1137 11.0407 17.1807 11.9362 14.9857 12.0116M26.0001 8.68401L26.0151 8.68416M24.5001 22.6L24.5151 22.6002M6.50007 2.58211L6.51507 2.58227M24.5001 14.5157C22.2501 14.5157 20.7501 15.349 19.3924 16.9078M11.3566 7.97994C12.5001 6.18319 13.2501 4.51652 12.5124 1.87891M1.30371 30.1075L6.60701 12.4299L17.2137 24.215L1.30371 30.1075Z" stroke="#FF725E" stroke-width="2" stroke-linecap="round" stroke-linejoin="round"/>
</svg>
